<svg width="60" height="61" viewBox="0 0 60 61" fill="none" xmlns="http://www.w3.org/2000/svg">
<g clip-path="url(#clip0_2103_2532)">
<path d="M38.7677 31.8763V55.2016C38.7677 56.1991 37.6455 56.8226 36.7727 56.1991L30.0396 51.3363L23.3065 56.1991C22.4337 56.8226 21.3115 56.1991 21.3115 55.2016V31.8763H38.7677Z" fill="white"/>
<path d="M30.0393 38.8675C39.6801 38.8675 47.4955 31.0521 47.4955 21.4113C47.4955 11.7704 39.6801 3.95502 30.0393 3.95502C20.3985 3.95502 12.583 11.7704 12.583 21.4113C12.583 31.0521 20.3985 38.8675 30.0393 38.8675Z" fill="#FDF0EA"/>
<path d="M31.2862 12.9325L32.5331 16.7978C32.6578 17.2965 33.1565 17.6706 33.78 17.6706H37.77C39.0169 17.6706 39.5156 19.1669 38.5181 19.915L35.2762 22.2841C34.7775 22.6581 34.6528 23.1569 34.7775 23.6556L36.0243 27.5209C36.3984 28.6431 35.0268 29.6406 34.154 28.8925L30.9122 26.5234C30.4134 26.1494 29.9147 26.1494 29.4159 26.5234L26.174 28.8925C25.1765 29.6406 23.9296 28.6431 24.3037 27.5209L25.5506 23.6556C25.6753 23.1569 25.5506 22.5335 25.0518 22.2841L21.81 19.915C20.8125 19.1669 21.3112 17.6706 22.5581 17.6706H26.5481C27.0469 17.6706 27.5456 17.2965 27.795 16.7978L29.0419 12.9325C29.1665 11.8103 30.9122 11.8103 31.2862 12.9325Z" fill="white"/>
<path d="M13.2929 27.6404C13.9831 27.6404 14.5427 27.0808 14.5427 26.3905C14.5427 25.7003 13.9831 25.1407 13.2929 25.1407C12.6026 25.1407 12.043 25.7003 12.043 26.3905C12.043 27.0808 12.6026 27.6404 13.2929 27.6404Z" fill="#EE8B00"/>
<path fill-rule="evenodd" clip-rule="evenodd" d="M20.2558 37.4373C17.5345 35.7164 15.2871 33.3152 13.7538 30.4713C13.4262 29.8647 13.6538 29.1056 14.2616 28.7779C14.8694 28.4503 15.6285 28.6766 15.9562 29.2844C18.6963 34.3657 24.0665 37.8212 30.2396 37.8212C39.1903 37.8212 46.4564 30.5551 46.4564 21.6056C46.4564 17.5123 44.9369 13.7717 42.4306 10.9165C41.9754 10.3988 42.028 9.60712 42.5457 9.15189C43.0647 8.69666 43.8564 8.74795 44.3116 9.26696C47.2031 12.5624 48.9577 16.8808 48.9577 21.6056C48.9577 28.2665 45.4697 34.1194 40.2233 37.4373V50.38C40.2233 51.0703 39.663 51.6306 38.9727 51.6306C38.2823 51.6306 37.7221 51.0703 37.7221 50.38V38.7655C35.4309 39.7672 32.8996 40.3225 30.2396 40.3225C27.5795 40.3225 25.0482 39.7672 22.7571 38.7655V55.4163C22.7571 55.4088 22.7696 55.3987 22.7759 55.3962L29.508 50.5351C29.9444 50.2187 30.5347 50.2187 30.9712 50.5351C30.9712 50.5351 37.7095 55.4013 37.7033 55.3975C37.7145 55.405 37.7221 55.4288 37.7221 55.4163V54.1319C37.7221 53.4415 38.2823 52.8813 38.9727 52.8813C39.663 52.8813 40.2233 53.4415 40.2233 54.1319V55.4163C40.2233 57.4098 37.9934 58.6779 36.2501 57.4323L36.2451 57.4285L30.2396 53.0914L24.2341 57.4285L24.2291 57.4323C22.4857 58.6779 20.2558 57.4098 20.2558 55.4163V37.4373ZM14.0652 22.7774C14.114 23.4653 13.595 24.0644 12.9071 24.1131C12.2181 24.1632 11.619 23.6442 11.5702 22.9551C11.5377 22.5098 11.5215 22.0596 11.5215 21.6056C11.5215 11.2742 19.9094 2.88751 30.2396 2.88751C34.2266 2.88751 37.9247 4.13691 40.9624 6.26547C41.5277 6.66067 41.6653 7.44106 41.2688 8.00634C40.8724 8.57162 40.092 8.70919 39.5267 8.31399C36.8954 6.47057 33.6925 5.38876 30.2396 5.38876C21.2888 5.38876 14.0227 12.6549 14.0227 21.6056C14.0227 21.9996 14.0377 22.3897 14.0652 22.7774ZM26.7065 16.6119C26.7278 16.5944 26.7979 16.5356 26.8454 16.4756C26.8454 16.4756 28.0185 12.8375 28.0185 12.8425C28.1785 11.8857 28.8551 11.2942 29.688 11.0966C30.8123 10.829 32.2281 11.3868 32.6758 12.7312L33.9239 16.6019C33.9414 16.6069 33.9652 16.6119 33.9827 16.6119H37.9747C39.2153 16.6119 40.0682 17.3785 40.3784 18.309C40.6885 19.2394 40.4659 20.3637 39.4679 21.1129C39.4679 21.1129 36.2276 23.4803 36.2201 23.4866C36.2051 23.5003 36.1938 23.5153 36.1926 23.5341C36.1926 23.5341 37.4182 27.3347 37.4144 27.3235C37.7908 28.4503 37.3118 29.5221 36.4977 30.1161C35.656 30.7314 34.4967 30.8265 33.5862 30.0773L30.3684 27.7262L30.3646 27.7224L30.3596 27.7262L27.1117 30.0986C25.0882 31.6031 22.5557 29.5971 23.3099 27.3347C23.3099 27.3347 24.538 23.5291 24.538 23.5241C24.5392 23.5191 24.5392 23.5141 24.5392 23.5091L21.2613 21.1129L21.2551 21.1091C20.2621 20.3638 20.0407 19.2394 20.3509 18.309C20.661 17.3785 21.5127 16.6119 22.7533 16.6119H26.7065ZM22.7633 19.1131C22.9484 19.2494 25.9212 21.4205 25.9162 21.418C26.8679 21.9646 27.2105 23.1576 26.9617 24.1544L26.9517 24.1944L25.7173 28.0213C26.2388 27.6399 28.8751 25.7127 28.8751 25.7127C29.3679 25.3462 29.8706 25.1887 30.3646 25.1887C30.8574 25.1887 31.3601 25.3462 31.8541 25.7127L35.012 28.0201L33.7776 24.1944L33.7676 24.1544C33.525 23.1827 33.7576 22.2072 34.7356 21.473C34.7356 21.473 37.6883 19.3157 37.9647 19.1131H33.9827C32.7471 19.1131 31.8004 18.319 31.534 17.341L30.3646 13.7142L29.1553 17.4635L29.1128 17.5486C28.6475 18.4778 27.6758 19.1131 26.7466 19.1131H22.7633Z" fill="#EE8B00"/>
</g>
<defs>
<clipPath id="clip0_2103_2532">
<rect width="60" height="60" fill="white" transform="translate(0 0.130005)"/>
</clipPath>
</defs>
</svg>
