<svg width="60" height="61" viewBox="0 0 60 61" fill="none" xmlns="http://www.w3.org/2000/svg">
<g clip-path="url(#clip0_2103_2514)">
<path fill-rule="evenodd" clip-rule="evenodd" d="M28.4153 55.342C28.758 55.8876 29.358 56.2203 30.0032 56.2203C30.6485 56.2203 31.2485 55.8876 31.5912 55.342C36.6662 47.2503 52.3603 22.226 55.9625 16.4823C56.402 15.7808 56.3298 14.8738 55.7837 14.2502C53.7181 11.8927 48.7631 6.23456 47.093 4.3276C46.7367 3.92264 46.2225 3.68878 45.6825 3.68878C41.0557 3.68878 18.9507 3.68878 14.3239 3.68878C13.7839 3.68878 13.2697 3.92264 12.9134 4.3276C11.2433 6.23456 6.28831 11.8927 4.22278 14.2502C3.67671 14.8738 3.60447 15.7808 4.04403 16.4823C7.64613 22.226 23.3402 47.2503 28.4153 55.342Z" fill="#FDF0EA"/>
<path fill-rule="evenodd" clip-rule="evenodd" d="M3.83789 15.3174H56.1915C56.1152 15.0674 55.9865 14.831 55.8063 14.6247C53.7403 12.2673 48.7815 6.60811 47.1108 4.70091C46.7556 4.29445 46.2403 4.06186 45.7001 4.06186C41.0727 4.06186 18.9567 4.06186 14.3294 4.06186C13.7891 4.06186 13.2739 4.29445 12.9187 4.70091C11.2478 6.60811 6.28911 12.2673 4.22308 14.6247C4.04299 14.831 3.91417 15.0674 3.83789 15.3174Z" fill="white"/>
<path fill-rule="evenodd" clip-rule="evenodd" d="M22.5112 15.3174L30.015 4.06186H14.3296C14.1508 4.06186 13.9745 4.08687 13.8057 4.1369L22.5112 15.3174ZM30.015 4.06186L37.5187 15.3174L46.2243 4.1369C46.0555 4.08687 45.8791 4.06186 45.7003 4.06186H30.015Z" fill="#FDF0EA"/>
<path fill-rule="evenodd" clip-rule="evenodd" d="M37.5192 15.3174H22.5117L30.0154 4.06186L37.5192 15.3174Z" fill="white"/>
<path fill-rule="evenodd" clip-rule="evenodd" d="M30.0154 56.6031L22.5117 15.3174H37.5192L30.0154 56.6031Z" fill="white"/>
<path fill-rule="evenodd" clip-rule="evenodd" d="M15.0052 49.1218L16.486 51.3938L18.7578 52.8744L16.486 54.3539L15.0052 56.6258L13.5258 54.3539L11.2539 52.8744L13.5258 51.3938L15.0052 49.1218Z" fill="#FDF0EA"/>
<path fill-rule="evenodd" clip-rule="evenodd" d="M7.50523 34.1218L8.986 36.3938L11.2579 37.8744L8.986 39.3539L7.50523 41.6258L6.02576 39.3539L3.75391 37.8744L6.02576 36.3938L7.50523 34.1218Z" fill="#FDF0EA"/>
<path fill-rule="evenodd" clip-rule="evenodd" d="M51.2542 40.3713L52.735 42.6431L55.0069 44.1239L52.735 45.6034L51.2542 47.8752L49.7748 45.6034L47.5029 44.1239L49.7748 42.6431L51.2542 40.3713Z" fill="#FDF0EA"/>
<path d="M23.1335 48.2744C23.8242 48.2744 24.3841 47.7144 24.3841 47.0237C24.3841 46.333 23.8242 45.7731 23.1335 45.7731C22.4427 45.7731 21.8828 46.333 21.8828 47.0237C21.8828 47.7144 22.4427 48.2744 23.1335 48.2744Z" fill="#EE8B00"/>
<path fill-rule="evenodd" clip-rule="evenodd" d="M5.33937 16.5681H21.4762L28.5134 53.5103L26.3173 50.0098C25.951 49.4246 25.178 49.2483 24.594 49.6146C24.0086 49.9811 23.8324 50.7539 24.1988 51.338C24.1988 51.338 26.5525 55.0911 27.3666 56.3892C27.9382 57.301 28.9386 57.8537 30.0155 57.8537C31.0922 57.8537 32.0927 57.301 32.6642 56.3892L57.0452 17.5223C57.7793 16.353 57.658 14.8397 56.7475 13.8005C54.6815 11.443 49.724 5.78396 48.0532 3.87676C47.4592 3.20017 46.6025 2.81125 45.7008 2.81125H14.3302C13.4284 2.81125 12.5717 3.20017 11.9777 3.87676C10.3069 5.78396 5.34938 11.443 3.28334 13.8005C2.37288 14.8397 2.25158 16.353 2.98569 17.5223L20.0629 44.746C20.4306 45.3312 21.2023 45.5075 21.7876 45.1412C22.3716 44.7747 22.5492 44.0019 22.1827 43.4178L5.33937 16.5681ZM53.656 14.0669L46.4662 5.86152L40.078 14.0669H48.7748C49.4652 14.0669 50.0255 14.6272 50.0255 15.3176C50.0255 16.0078 49.4652 16.5681 48.7748 16.5681H38.5547L31.5174 53.5103L54.6916 16.5681H52.5266C51.8364 16.5681 51.2761 16.0078 51.2761 15.3176C51.2761 14.6272 51.8364 14.0669 52.5266 14.0669H53.656ZM36.0084 16.5681H24.0224L30.0155 48.0288L36.0084 16.5681ZM6.37488 14.0669H19.9529L13.5647 5.86152L6.37488 14.0669ZM24.8491 14.0669H35.1817L30.0155 6.31676L24.8491 14.0669ZM43.7236 5.31249H32.3528L37.598 13.1801L43.7236 5.31249ZM27.678 5.31249H16.3074L22.4329 13.1801L27.678 5.31249Z" fill="#EE8B00"/>
<path fill-rule="evenodd" clip-rule="evenodd" d="M16.0527 48.4388C15.8224 48.0846 15.4288 47.8714 15.005 47.8714C14.5825 47.8714 14.189 48.0846 13.9573 48.4388L12.6213 50.4894L10.5706 51.8268C10.2165 52.0571 10.002 52.4507 10.002 52.8746C10.002 53.2971 10.2165 53.6906 10.5706 53.9223L12.6213 55.2582L13.9573 57.309C14.189 57.663 14.5825 57.8776 15.005 57.8776C15.4288 57.8776 15.8224 57.663 16.0527 57.309L17.3901 55.2582L19.4408 53.9223C19.7949 53.6906 20.008 53.2971 20.008 52.8746C20.008 52.4507 19.7949 52.0571 19.4408 51.8268L17.3901 50.4894L16.0527 48.4388ZM15.005 51.4121L15.4381 52.0769C15.5329 52.2216 15.6579 52.3467 15.8026 52.4415L16.4674 52.8746L15.8026 53.3062C15.6579 53.401 15.5329 53.526 15.4381 53.6722L15.005 54.3356L14.5732 53.6722C14.4786 53.526 14.3535 53.401 14.2074 53.3062L13.544 52.8746L14.2074 52.4415C14.3535 52.3467 14.4786 52.2216 14.5732 52.0769L15.005 51.4121Z" fill="#EE8B00"/>
<path fill-rule="evenodd" clip-rule="evenodd" d="M8.55275 33.4388C8.32241 33.0846 7.92886 32.8714 7.50502 32.8714C7.08251 32.8714 6.68895 33.0846 6.45729 33.4388L5.12129 35.4894L3.07057 36.8268C2.7165 37.0571 2.50195 37.4507 2.50195 37.8746C2.50195 38.2971 2.7165 38.6906 3.07057 38.9223L5.12129 40.2582L6.45729 42.309C6.68895 42.663 7.08251 42.8776 7.50502 42.8776C7.92886 42.8776 8.32241 42.663 8.55275 42.309L9.89006 40.2582L11.9408 38.9223C12.2949 38.6906 12.508 38.2971 12.508 37.8746C12.508 37.4507 12.2949 37.0571 11.9408 36.8268L9.89006 35.4894L8.55275 33.4388ZM7.50502 36.4121L7.93806 37.0769C8.03284 37.2216 8.15788 37.3467 8.30267 37.4415L8.96737 37.8746L8.30267 38.3062C8.15788 38.401 8.03284 38.526 7.93806 38.6722L7.50502 39.3356L7.07329 38.6722C6.97852 38.526 6.85348 38.401 6.70738 38.3062L6.04398 37.8746L6.70738 37.4415C6.85348 37.3467 6.97852 37.2216 7.07329 37.0769L7.50502 36.4121Z" fill="#EE8B00"/>
<path fill-rule="evenodd" clip-rule="evenodd" d="M52.3019 39.6881C52.0715 39.334 51.6779 39.1208 51.254 39.1208C50.8315 39.1208 50.438 39.334 50.2063 39.6881L48.8703 41.7388L46.8197 43.0761C46.4655 43.3065 46.251 43.7001 46.251 44.1239C46.251 44.5464 46.4655 44.9399 46.8197 45.1716L48.8703 46.5076L50.2063 48.5583C50.438 48.9124 50.8315 49.127 51.254 49.127C51.6779 49.127 52.0715 48.9124 52.3019 48.5583L53.6391 46.5076L55.6898 45.1716C56.0439 44.9399 56.2572 44.5464 56.2572 44.1239C56.2572 43.7001 56.0439 43.3065 55.6898 43.0761L53.6391 41.7388L52.3019 39.6881ZM51.254 42.6615L51.6871 43.3262C51.7819 43.471 51.9069 43.596 52.0518 43.6908L52.7165 44.1239L52.0518 44.5556C51.9069 44.6504 51.7819 44.7754 51.6871 44.9216L51.254 45.5849L50.8224 44.9216C50.7276 44.7754 50.6025 44.6504 50.4564 44.5556L49.793 44.1239L50.4564 43.6908C50.6025 43.596 50.7276 43.471 50.8224 43.3262L51.254 42.6615Z" fill="#EE8B00"/>
</g>
<defs>
<clipPath id="clip0_2103_2514">
<rect width="60" height="60" fill="white" transform="translate(0 0.130005)"/>
</clipPath>
</defs>
</svg>
