<svg width="60" height="61" viewBox="0 0 60 61" fill="none" xmlns="http://www.w3.org/2000/svg">
<g clip-path="url(#clip0_2103_2499)">
<path fill-rule="evenodd" clip-rule="evenodd" d="M30.06 4.01685C21.0805 4.01685 13.8018 11.2955 13.8018 20.275C13.8106 25.9528 16.7758 31.1729 21.5495 34.1031C22.3148 34.5734 23.119 35.5989 23.2953 36.4793L23.7368 38.6892C23.9219 39.6134 24.7411 40.285 25.6828 40.285H34.4372C35.3789 40.285 36.198 39.6134 36.3831 38.6892L36.8246 36.4793C37.0009 35.5989 37.8051 34.5734 38.5705 34.1044C43.3441 31.1729 46.3093 25.9528 46.3181 20.275C46.3181 11.2955 39.0395 4.01685 30.06 4.01685Z" fill="#FDF0EA"/>
<path fill-rule="evenodd" clip-rule="evenodd" d="M23.6465 48.0764L36.4629 48.1414L35.3711 54.6922C35.1935 55.7565 34.2643 56.5431 33.1862 56.5431H26.9331C25.8551 56.5431 24.9258 55.7565 24.7482 54.6922L23.6465 48.0764Z" fill="white"/>
<path fill-rule="evenodd" clip-rule="evenodd" d="M23.1814 45.2875H36.9382C37.2696 45.2875 37.5886 45.4188 37.8224 45.6539C38.0575 45.8878 38.1889 46.2067 38.1889 46.5381V47.7887C38.1889 48.4753 37.6248 49.0393 36.9382 49.0393H23.1814C22.8499 49.0393 22.531 48.908 22.2972 48.6729C22.062 48.439 21.9307 48.1201 21.9307 47.7887V46.5381C21.9307 45.8515 22.4948 45.2875 23.1814 45.2875Z" fill="#FDF0EA"/>
<path fill-rule="evenodd" clip-rule="evenodd" d="M30.0604 4.01685C26.9526 4.01685 24.4326 11.2955 24.4326 20.275C24.4351 25.9528 25.4618 31.1729 27.1151 34.1031C27.379 34.5734 27.6579 35.5989 27.7192 36.4793L27.8718 38.6892C27.9356 39.6134 28.2194 40.285 28.5446 40.285H31.5761C31.9013 40.285 32.1852 39.6134 32.249 38.6892L32.4015 36.4793C32.4628 35.5989 32.7417 34.5734 33.0056 34.1044C34.6589 31.1729 35.6857 25.9528 35.6882 20.275C35.6882 11.2955 33.1682 4.01685 30.0604 4.01685Z" fill="white"/>
<path fill-rule="evenodd" clip-rule="evenodd" d="M11.4736 38.7393C10.7932 38.1427 9.91528 37.7838 8.95605 37.7838C6.79747 37.7838 5.04785 39.6035 5.04785 41.8483C5.04785 44.0932 6.79747 45.9129 8.95605 45.9129H14.4275C16.1546 45.9129 17.5541 44.4571 17.5541 42.6612C17.5541 40.8653 16.1546 39.4096 14.4275 39.4096C13.7597 39.4096 13.1394 39.6272 12.6316 39.9987L11.4736 38.7393Z" fill="#FDF0EA"/>
<path fill-rule="evenodd" clip-rule="evenodd" d="M51.8243 30.2612C52.3008 29.8435 52.9161 29.5922 53.5877 29.5922C55.0985 29.5922 56.3228 30.8666 56.3228 32.4373C56.3228 34.0081 55.0985 35.2825 53.5877 35.2825H49.757C48.5489 35.2825 47.5684 34.2632 47.5684 33.0064C47.5684 31.7495 48.5489 30.7302 49.757 30.7302C50.2248 30.7302 50.6587 30.8828 51.0139 31.1429L51.8243 30.2612Z" fill="white"/>
<path fill-rule="evenodd" clip-rule="evenodd" d="M22.7419 50.2512L23.5161 54.8985C23.7937 56.5619 25.2469 57.7937 26.934 57.7937H33.1871C34.8742 57.7937 36.3275 56.5619 36.6051 54.8985L37.3792 50.25C38.5448 50.0399 39.4403 49.0106 39.4403 47.7887V46.5381C39.4403 45.8753 39.1764 45.2387 38.7074 44.7697C38.2384 44.3007 37.6018 44.0369 36.939 44.0369H36.3137V40.9328C36.9665 40.4676 37.4443 39.7635 37.6094 38.9343L38.0521 36.7245C38.1684 36.1429 38.7199 35.4801 39.2252 35.1699C44.3665 32.0134 47.5606 26.3918 47.5693 20.2775V20.275C47.5693 10.6051 39.7304 2.76624 30.0606 2.76624C20.3907 2.76624 12.5518 10.6051 12.5518 20.275V20.2762C12.5531 20.844 12.5806 21.4056 12.6356 21.9633C12.7032 22.6499 13.3147 23.1527 14.0026 23.0851C14.6892 23.0176 15.1919 22.4061 15.1244 21.7182C15.0781 21.2417 15.0543 20.7602 15.0531 20.2737C15.0531 13.3853 19.6941 7.5824 26.0198 5.81777C24.344 8.82927 23.1821 14.1719 23.1821 20.275V20.2762C23.1859 26.2092 24.299 31.6557 26.0248 34.7184C26.2312 35.0824 26.4238 35.8828 26.4713 36.5656L26.6239 38.7755C26.6301 38.8643 26.6389 38.9506 26.6476 39.0344H25.6834C25.3345 39.0344 25.0318 38.7867 24.9643 38.4441L24.5228 36.2342C24.2864 35.0549 23.2297 33.6679 22.2042 33.0376C20.1344 31.767 18.4323 30.0286 17.2092 28.0001C16.8527 27.4085 16.0823 27.2185 15.492 27.5749C14.9005 27.9313 14.7104 28.7004 15.0668 29.292C16.4938 31.6582 18.4798 33.6867 20.896 35.1699C21.4012 35.4801 21.9528 36.1429 22.0691 36.7245L22.5118 38.9343C22.6769 39.7635 23.1546 40.4676 23.8075 40.9328V44.0369H23.1821C21.8102 44.0369 20.6809 45.1662 20.6809 46.5381V47.7887C20.6809 48.4516 20.9448 49.0881 21.4138 49.5571C21.7777 49.921 22.2417 50.1612 22.7419 50.2512ZM34.838 50.29H34.3965C33.7062 50.29 33.1459 49.7297 33.1459 49.0394C33.1459 48.349 33.7062 47.7887 34.3965 47.7887H36.939V46.6382C36.859 46.6181 36.7452 46.5381 36.939 46.5381H23.1821V47.6887C23.2622 47.7087 23.376 47.7887 23.1821 47.7887H30.3782C31.0673 47.7887 31.6289 48.349 31.6289 49.0394C31.6289 49.7297 31.0673 50.29 30.3782 50.29H25.2832L25.9835 54.4871C26.0598 54.9498 26.465 55.2925 26.934 55.2925H33.1871C33.6561 55.2925 34.0613 54.9498 34.1376 54.4871L34.838 50.29ZM28.81 44.0369V41.5356H26.3087V44.0369H28.81ZM33.8125 44.0369V41.5356H31.3112V44.0369H33.8125ZM30.0606 5.26749C30.387 5.26749 30.6784 5.46509 30.9723 5.74773C31.44 6.19671 31.864 6.86203 32.2529 7.68745C33.5936 10.5251 34.4378 15.1086 34.4378 20.275C34.4353 25.6977 33.4948 30.6902 31.9165 33.4891C31.5926 34.0656 31.2287 35.3137 31.1549 36.393L31.001 38.6029C30.9923 38.7405 30.9635 38.8968 30.9323 39.0344H29.1889C29.1576 38.8968 29.1289 38.7405 29.1201 38.6029L28.9663 36.393C28.8925 35.3137 28.5286 34.0656 28.2047 33.4891C26.6264 30.6902 25.6859 25.6977 25.6834 20.275C25.6834 15.1086 26.5276 10.5251 27.8682 7.68745C28.2572 6.86203 28.6811 6.19671 29.1489 5.74773C29.4428 5.46509 29.7342 5.26749 30.0606 5.26749ZM34.1014 5.81777C35.7772 8.82927 36.939 14.1719 36.939 20.275V20.2762C36.9365 26.2092 35.8222 31.6557 34.0963 34.7184C33.89 35.0824 33.6974 35.8828 33.6499 36.5656L33.4973 38.7755C33.491 38.8643 33.4823 38.9506 33.4735 39.0344H34.4378C34.7867 39.0344 35.0893 38.7867 35.1569 38.4441L35.5984 36.2342C35.8347 35.0549 36.8915 33.6679 37.9158 33.0376C42.323 30.3325 45.0593 25.5151 45.0681 20.2737C45.0681 13.3865 40.427 7.5824 34.1014 5.81777Z" fill="#EE8B00"/>
<path fill-rule="evenodd" clip-rule="evenodd" d="M12.3949 37.8938C12.3636 37.86 12.3323 37.8287 12.2986 37.7987C11.3956 37.0083 10.2288 36.5331 8.9557 36.5331C6.12054 36.5331 3.79688 38.8993 3.79688 41.8482C3.79688 44.7972 6.12054 47.1634 8.9557 47.1634H14.4271C16.8308 47.1634 18.8043 45.1611 18.8043 42.6611C18.8043 40.1611 16.8308 38.1589 14.4271 38.1589C13.8894 38.1589 13.3741 38.2589 12.8976 38.4415L12.3949 37.8938ZM10.6027 39.6396L11.7108 40.8452C12.141 41.3142 12.8551 41.3842 13.3691 41.0091C13.6693 40.7902 14.0332 40.6601 14.4271 40.6601C15.4777 40.6601 16.3031 41.5693 16.3031 42.6611C16.3031 43.7529 15.4777 44.6621 14.4271 44.6621H8.9557C7.47371 44.6621 6.29813 43.389 6.29813 41.8482C6.29813 40.3075 7.47371 39.0343 8.9557 39.0343C9.57726 39.0343 10.1488 39.2607 10.599 39.6371L10.6027 39.6396Z" fill="#EE8B00"/>
<path fill-rule="evenodd" clip-rule="evenodd" d="M51.0007 29.3208L50.7168 29.6184C50.4129 29.5284 50.0903 29.4796 49.7576 29.4796C47.8717 29.4796 46.3184 31.0454 46.3184 33.0064C46.3184 34.9674 47.8717 36.5331 49.7576 36.5331H53.5883C55.7756 36.5331 57.574 34.7122 57.574 32.4374C57.574 30.1625 55.7756 28.3415 53.5883 28.3415C52.6028 28.3415 51.6986 28.708 51.0007 29.3208ZM52.6966 31.1617C52.9429 30.9629 53.2518 30.8428 53.5883 30.8428C54.4212 30.8428 55.0728 31.5694 55.0728 32.4374C55.0728 33.3053 54.4212 34.0319 53.5883 34.0319H49.7576C49.2261 34.0319 48.8196 33.5592 48.8196 33.0064C48.8196 32.4536 49.2261 31.9809 49.7576 31.9809C49.9514 31.9809 50.1303 32.0446 50.2766 32.1522C50.7906 32.5286 51.5047 32.4574 51.9362 31.9896L52.6928 31.1642L52.6966 31.1617Z" fill="#EE8B00"/>
<path d="M14.595 26.4886C15.286 26.4886 15.8461 25.9284 15.8461 25.2374C15.8461 24.5464 15.286 23.9863 14.595 23.9863C13.904 23.9863 13.3438 24.5464 13.3438 25.2374C13.3438 25.9284 13.904 26.4886 14.595 26.4886Z" fill="#EB662B"/>
</g>
<defs>
<clipPath id="clip0_2103_2499">
<rect width="60" height="60" fill="white" transform="translate(0 0.130005)"/>
</clipPath>
</defs>
</svg>
