<svg width="60" height="61" viewBox="0 0 60 61" fill="none" xmlns="http://www.w3.org/2000/svg">
<g clip-path="url(#clip0_2103_2489)">
<g clip-path="url(#clip1_2103_2489)">
<path fill-rule="evenodd" clip-rule="evenodd" d="M56.368 31.3117C56.368 32.1259 55.8415 32.8475 55.0661 33.0964C53.2815 33.6279 51.9908 35.2887 51.9908 37.2485C51.9908 39.2082 53.2815 40.869 55.0573 41.4255C55.8215 41.6719 56.3405 42.3823 56.3405 43.1852C56.368 44.0394 56.368 45.1036 56.368 46.0028C56.368 47.0383 55.5276 47.8788 54.4921 47.8788C46.3217 47.8788 13.888 47.8788 5.71774 47.8788C4.68222 47.8788 3.8418 47.0383 3.8418 46.0028C3.8418 45.1036 3.8418 44.0394 3.8418 43.1852C3.8418 42.371 4.36831 41.6494 5.1437 41.4005C6.92834 40.869 8.21899 39.2082 8.21899 37.2485C8.21899 35.2887 6.92835 33.6279 5.15246 33.0714C4.38833 32.825 3.86932 32.1146 3.86932 31.3117C3.8418 30.7114 3.8418 30.0286 3.8418 29.4283C3.8418 28.6141 4.36831 27.8925 5.1437 27.6437C6.92834 27.1121 8.21899 25.4513 8.21899 23.4916C8.21899 21.5318 6.92835 19.871 5.15246 19.3145C4.38833 19.0681 3.86932 18.3577 3.86932 17.5548C3.8418 16.7007 3.8418 15.6364 3.8418 14.7372C3.8418 13.7017 4.68222 12.8613 5.71774 12.8613H54.4921C55.5276 12.8613 56.368 13.7017 56.368 14.7372V17.5548C56.368 18.369 55.8415 19.0906 55.0661 19.3395C53.2815 19.871 51.9908 21.5318 51.9908 23.4916C51.9908 25.4513 53.2815 27.1121 55.0573 27.6687C55.8215 27.915 56.3405 28.6254 56.3405 29.4283C56.368 30.0286 56.368 30.7114 56.368 31.3117Z" fill="#FDF0EA"/>
<path fill-rule="evenodd" clip-rule="evenodd" d="M32.1644 23.7449C32.5096 23.2143 33.1006 22.8947 33.7337 22.8947C34.3669 22.8947 34.9578 23.2143 35.303 23.7449C35.6362 24.253 35.9573 24.7459 36.1955 25.1107C36.4472 25.4951 36.8316 25.774 37.2748 25.8946C37.6954 26.0077 38.2622 26.1615 38.8487 26.3213C39.4607 26.4856 39.9461 26.9484 40.1421 27.5514C40.3381 28.1529 40.216 28.8131 39.8195 29.3061C39.4381 29.7794 39.0688 30.2378 38.7959 30.5769C38.508 30.9342 38.3617 31.3864 38.3844 31.8462C38.4055 32.2804 38.4341 32.8683 38.4642 33.4744C38.4959 34.1075 38.2065 34.712 37.6939 35.0844C37.1829 35.4567 36.5165 35.5457 35.9256 35.3195C35.3573 35.104 34.807 34.8944 34.4015 34.7391C33.9704 34.5763 33.497 34.5763 33.0659 34.7391C32.6604 34.8944 32.1101 35.104 31.5418 35.3195C30.9509 35.5457 30.2846 35.4567 29.7735 35.0844C29.261 34.712 28.9715 34.1075 29.0032 33.4744C29.0333 32.8683 29.062 32.2804 29.0831 31.8462C29.1057 31.3864 28.9595 30.9342 28.6715 30.5769C28.3987 30.2378 28.0293 29.7794 27.6479 29.3061C27.2515 28.8131 27.1293 28.1529 27.3253 27.5514C27.5213 26.9484 28.0067 26.4856 28.6188 26.3213C29.2052 26.1615 29.772 26.0077 30.1926 25.8946C30.6358 25.774 31.0202 25.4951 31.272 25.1107C31.5102 24.7459 31.8312 24.253 32.1644 23.7449Z" fill="white"/>
<path fill-rule="evenodd" clip-rule="evenodd" d="M22.6018 46.6282C23.2922 46.6282 23.8524 47.1884 23.8524 47.8788C23.8524 48.5691 23.2922 49.1294 22.6018 49.1294C21.9115 49.1294 21.3512 48.5691 21.3512 47.8788C21.3512 47.1884 21.9115 46.6282 22.6018 46.6282ZM52.6168 14.1119H54.4927C54.8379 14.1119 55.1181 14.392 55.1181 14.7372V17.5549C55.1181 17.8175 54.953 18.0514 54.7079 18.1414C52.4054 18.8317 50.7409 20.9678 50.7409 23.4916C50.7409 26.0103 52.4005 28.1452 54.6841 28.8618C54.923 28.9393 55.0905 29.1694 55.0905 29.4283C55.0905 29.4483 55.0905 29.4671 55.0918 29.4858C55.1181 30.0674 55.1181 30.7302 55.1181 31.3117C55.1181 31.5744 54.953 31.8082 54.7079 31.8983C52.4054 32.5886 50.7409 34.7247 50.7409 37.2485C50.7409 39.7672 52.4005 41.902 54.6841 42.6187C54.923 42.6962 55.0905 42.9263 55.0905 43.1852V43.2265C55.1181 44.0681 55.1181 45.1161 55.1181 46.0028C55.1181 46.348 54.8379 46.6282 54.4927 46.6282H26.3537C25.6633 46.6282 25.1031 47.1884 25.1031 47.8788C25.1031 48.5691 25.6633 49.1294 26.3537 49.1294H54.4927C56.2199 49.1294 57.6193 47.73 57.6193 46.0028C57.6193 45.0949 57.6193 44.0206 57.5918 43.1552C57.5818 41.8257 56.7151 40.6452 55.4407 40.235C55.4382 40.235 55.4357 40.2337 55.4332 40.2324C54.1638 39.8347 53.2421 38.6479 53.2421 37.2485C53.2421 35.8565 54.1551 34.6734 55.4232 34.2957C55.432 34.2932 55.4407 34.2907 55.4495 34.287C56.7426 33.8718 57.6193 32.6699 57.6193 31.3117C57.6193 30.7027 57.6193 30.0098 57.5918 29.3983C57.578 28.0651 56.7126 26.887 55.4407 26.4781C55.4382 26.4781 55.4357 26.4768 55.4332 26.4756C54.1638 26.0779 53.2421 24.891 53.2421 23.4916C53.2421 22.0996 54.1551 20.9166 55.4232 20.5389C55.432 20.5364 55.4407 20.5338 55.4495 20.5301C56.7426 20.1149 57.6193 18.913 57.6193 17.5549V14.7372C57.6193 13.0101 56.2199 11.6107 54.4927 11.6107H52.6168C51.9265 11.6107 51.3662 12.1709 51.3662 12.8613C51.3662 13.5516 51.9265 14.1119 52.6168 14.1119ZM17.5993 46.6282V43.4916C17.5993 42.8012 17.039 42.241 16.3487 42.241C15.6583 42.241 15.0981 42.8012 15.0981 43.4916V46.6282H5.71836C5.37319 46.6282 5.09305 46.348 5.09305 46.0028V43.1852C5.09305 42.9226 5.25813 42.6887 5.50326 42.5987C7.80566 41.9083 9.47024 39.7722 9.47024 37.2485C9.47024 34.7297 7.81066 32.5949 5.52702 31.8783C5.28815 31.8007 5.12057 31.5706 5.12057 31.3117C5.12057 31.2917 5.12056 31.273 5.11931 31.2542C5.09304 30.6727 5.09305 30.0099 5.09305 29.4283C5.09305 29.1657 5.25813 28.9318 5.50326 28.8418C7.80566 28.1514 9.47024 26.0154 9.47024 23.4916C9.47024 20.9728 7.81066 18.838 5.52702 18.1214C5.28815 18.0439 5.12057 17.8137 5.12057 17.5549C5.12057 17.5411 5.12057 17.5274 5.12057 17.5136C5.09305 16.6719 5.09305 15.6239 5.09305 14.7372C5.09305 14.392 5.37319 14.1119 5.71836 14.1119H15.0981V18.4791C15.0981 19.1694 15.6583 19.7297 16.3487 19.7297C17.039 19.7297 17.5993 19.1694 17.5993 18.4791V14.1119H48.8649C49.5553 14.1119 50.1156 13.5516 50.1156 12.8613C50.1156 12.1709 49.5553 11.6107 48.8649 11.6107C48.8649 11.6107 12.5468 11.6107 5.71836 11.6107C3.99125 11.6107 2.5918 13.0101 2.5918 14.7372C2.5918 15.6452 2.5918 16.7195 2.61932 17.5849C2.62932 18.9143 3.49601 20.0949 4.77039 20.5051C4.77289 20.5051 4.77539 20.5064 4.77789 20.5076C6.04728 20.9053 6.96899 22.0921 6.96899 23.4916C6.96899 24.8835 6.05603 26.0666 4.78789 26.4443C4.77914 26.4468 4.77039 26.4493 4.76163 26.4531C3.46849 26.8683 2.5918 28.0701 2.5918 29.4283C2.5918 30.0374 2.5918 30.7302 2.61932 31.3418C2.63307 32.6749 3.49851 33.853 4.77039 34.262C4.77289 34.262 4.77539 34.2632 4.77789 34.2645C6.04728 34.6622 6.96899 35.849 6.96899 37.2485C6.96899 38.6404 6.05603 39.8235 4.78789 40.2012C4.77914 40.2037 4.77039 40.2062 4.76163 40.21C3.46849 40.6252 2.5918 41.827 2.5918 43.1852V46.0028C2.5918 47.73 3.99125 49.1294 5.71836 49.1294H18.8499C19.5403 49.1294 20.1006 48.5691 20.1006 47.8788C20.1006 47.1884 19.5403 46.6282 18.8499 46.6282H17.5993ZM15.0981 33.4866V38.4891C15.0981 39.1794 15.6583 39.7397 16.3487 39.7397C17.039 39.7397 17.5993 39.1794 17.5993 38.4891V33.4866C17.5993 32.7962 17.039 32.236 16.3487 32.236C15.6583 32.236 15.0981 32.7962 15.0981 33.4866ZM15.0981 23.4816V28.4841C15.0981 29.1744 15.6583 29.7347 16.3487 29.7347C17.039 29.7347 17.5993 29.1744 17.5993 28.4841V23.4816C17.5993 22.7912 17.039 22.231 16.3487 22.231C15.6583 22.231 15.0981 22.7912 15.0981 23.4816Z" fill="#EE8B00"/>
<path fill-rule="evenodd" clip-rule="evenodd" d="M31.2226 23.2976L30.3297 24.6641C30.2452 24.7923 30.117 24.8858 29.9692 24.925L28.3946 25.3519C27.375 25.6279 26.5651 26.4001 26.2378 27.4046C25.912 28.4076 26.1141 29.5086 26.7762 30.3306L27.8004 31.6021C27.8969 31.7212 27.9452 31.872 27.9376 32.0244L27.8562 33.6548C27.8049 34.709 28.2875 35.7196 29.1412 36.3395C29.9964 36.9594 31.1049 37.1072 32.0913 36.7316L33.6162 36.1509C33.761 36.0966 33.9178 36.0966 34.0611 36.1509L35.5875 36.7316C36.5739 37.1072 37.6824 36.9594 38.5376 36.3395C39.3913 35.7196 39.8739 34.709 39.8226 33.6548L39.7412 32.0244C39.7336 31.872 39.7819 31.7212 39.8784 31.6021L40.9025 30.3306C41.5647 29.5086 41.7668 28.4076 41.441 27.4046C41.1137 26.4001 40.3038 25.6279 39.2842 25.3519L37.7096 24.925C37.5618 24.8858 37.4336 24.7923 37.3491 24.6641L36.4562 23.2976C35.8801 22.4138 34.8952 21.8813 33.8394 21.8813C32.7836 21.8813 31.7987 22.4138 31.2226 23.2976ZM33.316 24.6656C33.4322 24.4891 33.6282 24.3821 33.8394 24.3821C34.0506 24.3821 34.2466 24.4891 34.3628 24.6656L35.2556 26.0321C35.6749 26.6746 36.316 27.1391 37.055 27.3397L38.6311 27.7666C38.8347 27.8224 38.9961 27.9762 39.061 28.1768C39.1273 28.3774 39.0866 28.5976 38.9539 28.762L37.9298 30.0335C37.4502 30.6307 37.2043 31.3834 37.2435 32.1496L37.3235 33.7785C37.334 33.9896 37.2375 34.1917 37.0671 34.3154C36.8966 34.4406 36.6749 34.4693 36.4773 34.3938L34.9525 33.8132C34.2346 33.5417 33.4442 33.5417 32.7263 33.8132L31.2015 34.3938C31.0039 34.4693 30.7822 34.4406 30.6117 34.3154C30.4413 34.1917 30.3448 33.9896 30.3553 33.7785L30.4353 32.1496C30.4745 31.3834 30.2286 30.6307 29.749 30.0335L28.7249 28.762C28.5922 28.5976 28.5515 28.3774 28.6178 28.1768C28.6827 27.9762 28.8441 27.8224 29.0477 27.7666L30.6238 27.3397C31.3628 27.1391 32.0039 26.6746 32.4232 26.0321L33.316 24.6656Z" fill="#EB662B"/>
</g>
</g>
<defs>
<clipPath id="clip0_2103_2489">
<rect width="60" height="60" fill="white" transform="translate(0 0.130005)"/>
</clipPath>
<clipPath id="clip1_2103_2489">
<rect width="60" height="60" fill="white" transform="translate(0 0.130005)"/>
</clipPath>
</defs>
</svg>
