<svg width="1307" height="205" viewBox="0 0 1307 205" fill="none" xmlns="http://www.w3.org/2000/svg">
<path d="M72.9219 45.7031C72.4219 45.7031 71.8906 45.7812 71.3281 45.9375C70.7969 46.0625 70.2656 46.2188 69.7344 46.4062C69.2031 46.5938 68.6406 46.7656 68.0469 46.9219C67.4844 47.0469 66.9062 47.1094 66.3125 47.1094C65.4062 47.1094 64.5312 46.9688 63.6875 46.6875C62.8438 46.4062 62.0938 45.9844 61.4375 45.4219C60.8125 44.8594 60.3125 44.1875 59.9375 43.4062C59.5625 42.5938 59.375 41.6875 59.375 40.6875C59.375 39.8125 59.6406 39 60.1719 38.25C60.7344 37.5 61.4219 36.875 62.2344 36.375C63.0469 35.875 63.9219 35.4844 64.8594 35.2031C65.7969 34.9219 66.6406 34.7812 67.3906 34.7812C67.7344 34.7812 68.1562 34.8125 68.6562 34.875C69.1875 34.9062 69.75 34.9844 70.3438 35.1094C70.9688 35.2031 71.5938 35.3438 72.2188 35.5312C72.8438 35.6875 73.4062 35.9062 73.9062 36.1875C74.4375 36.4688 74.875 36.7969 75.2188 37.1719C75.5938 37.5156 75.8125 37.9219 75.875 38.3906C75.875 38.5469 75.8438 38.8281 75.7812 39.2344C75.7188 39.6094 75.6719 40.0156 75.6406 40.4531C75.6094 40.8906 75.5625 41.3125 75.5 41.7188C75.4688 42.0938 75.4375 42.375 75.4062 42.5625V42.8438C75.4062 43.5312 75.5625 44.0469 75.875 44.3906C76.1875 44.7344 76.5625 44.9844 77 45.1406C77.4688 45.2656 77.9531 45.3281 78.4531 45.3281H79.9531C80.4219 45.3281 80.7188 45.3281 80.8438 45.3281C80.9688 45.2969 81.0469 45.2812 81.0781 45.2812C81.1406 45.2812 81.2188 45.2812 81.3125 45.2812C81.4375 45.25 81.75 45.2344 82.25 45.2344C82.6562 45.2344 82.9688 45.3125 83.1875 45.4688C83.4062 45.625 83.5156 45.9531 83.5156 46.4531C83.5156 46.9844 83.3438 47.3594 83 47.5781C82.6562 47.7969 82.25 47.9375 81.7812 48C81.3125 48.0938 80.8438 48.125 80.375 48.0938C79.9062 48.0625 79.5469 48.0469 79.2969 48.0469C78.5781 48.0469 77.8906 47.9219 77.2344 47.6719C76.6094 47.4219 76.0312 47.1562 75.5 46.875C74.9688 46.5625 74.4844 46.2969 74.0469 46.0781C73.6094 45.8281 73.2344 45.7031 72.9219 45.7031ZM62.1406 41.1562C62.1406 41.9062 62.2969 42.5156 62.6094 42.9844C62.9531 43.4219 63.3594 43.75 63.8281 43.9688C64.3281 44.1562 64.875 44.2812 65.4688 44.3438C66.0625 44.375 66.6406 44.3906 67.2031 44.3906C67.4219 44.3906 67.7812 44.375 68.2812 44.3438C68.8125 44.3125 69.3594 44.25 69.9219 44.1562C70.4844 44.0312 70.9844 43.875 71.4219 43.6875C71.8906 43.5 72.1562 43.2656 72.2188 42.9844L73.1562 39.3281C73.2188 39.0781 73.1562 38.8594 72.9688 38.6719C72.7812 38.4844 72.5156 38.3281 72.1719 38.2031C71.8594 38.0781 71.5 37.9688 71.0938 37.875C70.7188 37.7812 70.3438 37.7031 69.9688 37.6406C69.5938 37.5781 69.25 37.5312 68.9375 37.5C68.6562 37.4688 68.4844 37.4531 68.4219 37.4531C67.8594 37.4531 67.2031 37.5156 66.4531 37.6406C65.7344 37.7344 65.0469 37.9219 64.3906 38.2031C63.7656 38.4531 63.2344 38.8125 62.7969 39.2812C62.3594 39.75 62.1406 40.375 62.1406 41.1562ZM100.349 46.5938C99.3181 46.5938 98.3025 46.6875 97.3025 46.875C96.3337 47.0312 95.3494 47.1094 94.3494 47.1094C93.6619 47.1094 92.9119 47.1094 92.0994 47.1094C91.3181 47.0781 90.5212 47.0156 89.7087 46.9219C88.9275 46.7969 88.1619 46.625 87.4119 46.4062C86.6619 46.1562 85.99 45.8281 85.3962 45.4219C84.8337 44.9844 84.365 44.4531 83.99 43.8281C83.6462 43.2031 83.4744 42.4219 83.4744 41.4844C83.4744 40.3594 83.7712 39.3906 84.365 38.5781C84.99 37.7656 85.74 37.125 86.615 36.6562C87.5212 36.1562 88.5056 35.7969 89.5681 35.5781C90.6619 35.3281 91.7087 35.2031 92.7087 35.2031C94.0212 35.2031 95.3494 35.4219 96.6931 35.8594C98.0681 36.2656 99.3337 36.8125 100.49 37.5V28.8281C100.49 28.4219 100.552 28.1719 100.677 28.0781C100.834 27.9531 101.037 27.8906 101.287 27.8906C101.724 27.8906 102.099 28.3281 102.412 29.2031C102.724 30.0469 102.99 31.1406 103.209 32.4844C103.427 33.8281 103.599 35.3125 103.724 36.9375C103.881 38.5625 103.99 40.125 104.052 41.625C104.115 43.125 104.146 44.4688 104.146 45.6562C104.177 46.8125 104.193 47.6406 104.193 48.1406C103.693 48.1406 103.256 48.0625 102.881 47.9062C102.537 47.7188 102.224 47.5312 101.943 47.3438C101.693 47.1562 101.443 46.9844 101.193 46.8281C100.943 46.6719 100.662 46.5938 100.349 46.5938ZM86.24 41.4844C86.24 42.1094 86.4119 42.625 86.7556 43.0312C87.0994 43.4062 87.5525 43.7188 88.115 43.9688C88.6775 44.2188 89.3025 44.4062 89.99 44.5312C90.6775 44.6562 91.365 44.75 92.0525 44.8125C92.74 44.8438 93.3962 44.8594 94.0212 44.8594H95.5681C95.6306 44.8594 95.9119 44.875 96.4119 44.9062C96.9431 44.9375 97.5056 44.9375 98.0994 44.9062C98.6931 44.8438 99.24 44.75 99.74 44.625C100.24 44.4688 100.49 44.2188 100.49 43.875V38.8594C100.146 39.2031 99.8337 39.4531 99.5525 39.6094C99.3025 39.7656 98.9744 39.8438 98.5681 39.8438C98.5369 39.8438 98.365 39.75 98.0525 39.5625C97.74 39.3438 97.3181 39.125 96.7869 38.9062C96.2869 38.6562 95.6931 38.4375 95.0056 38.25C94.3494 38.0312 93.6306 37.9219 92.8494 37.9219C92.3181 37.9219 91.6775 37.9844 90.9275 38.1094C90.1775 38.2031 89.4431 38.3906 88.7244 38.6719C88.0369 38.9219 87.4431 39.2812 86.9431 39.75C86.4744 40.2188 86.24 40.7969 86.24 41.4844ZM105.746 34.3125C105.683 34.0312 105.699 33.7812 105.792 33.5625C105.886 33.3125 106.011 33.1094 106.167 32.9531C106.355 32.7969 106.574 32.6719 106.824 32.5781C107.074 32.4844 107.324 32.4531 107.574 32.4844C107.98 32.7656 108.402 33.2344 108.839 33.8906C109.277 34.5156 109.714 35.2188 110.152 36C110.589 36.75 110.996 37.5469 111.371 38.3906C111.777 39.2344 112.152 40 112.496 40.6875C112.871 41.375 113.199 41.9375 113.48 42.375C113.761 42.8125 113.996 43.0312 114.183 43.0312C114.308 43.0312 114.542 42.7344 114.886 42.1406C115.261 41.5469 115.714 40.8125 116.246 39.9375C116.777 39.0312 117.339 38.0625 117.933 37.0312C118.558 36 119.199 35.0469 119.855 34.1719C120.542 33.2656 121.23 32.5312 121.917 31.9688C122.636 31.375 123.324 31.0781 123.98 31.0781C124.23 31.0781 124.449 31.125 124.636 31.2188C124.855 31.3125 124.964 31.5 124.964 31.7812C124.964 31.8125 124.949 31.8438 124.917 31.875C124.917 31.9062 124.917 31.9531 124.917 32.0156C123.855 32.8594 122.808 33.9062 121.777 35.1562C120.746 36.375 119.792 37.6875 118.917 39.0938C118.042 40.4688 117.277 41.8906 116.621 43.3594C115.996 44.8281 115.574 46.2344 115.355 47.5781C114.792 47.7656 114.355 47.8906 114.042 47.9531C113.73 47.9844 113.324 48 112.824 48H112.121C111.964 47.5 111.761 46.875 111.511 46.125C111.292 45.3438 111.042 44.5312 110.761 43.6875C110.511 42.8125 110.23 41.9219 109.917 41.0156C109.605 40.1094 109.23 39.25 108.792 38.4375C108.386 37.5938 107.933 36.8125 107.433 36.0938C106.933 35.375 106.371 34.7812 105.746 34.3125ZM126.986 39.75C126.986 38.6875 127.283 37.6562 127.876 36.6562C128.47 35.6562 129.22 34.7812 130.126 34.0312C131.064 33.2812 132.079 32.6875 133.173 32.25C134.298 31.8125 135.361 31.5938 136.361 31.5938C137.173 31.5938 137.97 31.7031 138.751 31.9219C139.564 32.1094 140.283 32.4219 140.908 32.8594C141.533 33.2969 142.033 33.8438 142.408 34.5C142.814 35.125 143.017 35.875 143.017 36.75C143.017 37.1562 142.986 37.4844 142.923 37.7344C142.892 37.9531 142.798 38.1562 142.642 38.3438C142.486 38.5 142.283 38.6562 142.033 38.8125C141.814 38.9375 141.533 39.1094 141.189 39.3281C141.001 39.3594 140.72 39.4375 140.345 39.5625C139.97 39.6562 139.533 39.7656 139.033 39.8906C138.564 40.0156 138.064 40.1406 137.533 40.2656C137.001 40.3906 136.486 40.5156 135.986 40.6406C135.517 40.7656 135.095 40.875 134.72 40.9688C134.345 41.0625 134.064 41.125 133.876 41.1562C133.783 41.1875 133.579 41.2188 133.267 41.25C132.954 41.2812 132.611 41.3281 132.236 41.3906C131.892 41.4219 131.564 41.4688 131.251 41.5312C130.939 41.5625 130.751 41.5938 130.689 41.625C130.595 41.6562 130.486 41.7344 130.361 41.8594C130.267 41.9531 130.22 42.0156 130.22 42.0469C130.22 42.6719 130.392 43.2031 130.736 43.6406C131.079 44.0469 131.517 44.3906 132.048 44.6719C132.579 44.9531 133.173 45.1719 133.829 45.3281C134.517 45.4531 135.189 45.5625 135.845 45.6562C136.501 45.7188 137.111 45.75 137.673 45.75C138.236 45.75 138.689 45.75 139.033 45.75C140.595 45.75 142.126 45.6719 143.626 45.5156C145.126 45.3281 146.658 45.2344 148.22 45.2344V45.6094C148.22 45.7969 148.189 46 148.126 46.2188C148.095 46.4062 148.033 46.5938 147.939 46.7812C147.845 46.9375 147.72 47.0312 147.564 47.0625C146.376 47.3125 145.314 47.5156 144.376 47.6719C143.47 47.7969 142.611 47.8906 141.798 47.9531C140.986 47.9844 140.142 48 139.267 48C138.392 48.0312 137.423 48.0469 136.361 48.0469H135.564C135.22 48.0469 134.845 48.0312 134.439 48C134.033 48 133.642 48 133.267 48H132.47C131.501 47.75 130.658 47.3594 129.939 46.8281C129.251 46.2656 128.689 45.6094 128.251 44.8594C127.814 44.1094 127.486 43.2969 127.267 42.4219C127.079 41.5469 126.986 40.6562 126.986 39.75ZM137.486 34.2188C137.079 34.2188 136.611 34.2656 136.079 34.3594C135.579 34.4219 135.048 34.5469 134.486 34.7344C133.954 34.8906 133.423 35.1094 132.892 35.3906C132.361 35.6406 131.892 35.9531 131.486 36.3281C131.079 36.6719 130.736 37.0625 130.454 37.5C130.204 37.9375 130.079 38.4219 130.079 38.9531H132.001C132.689 38.9531 133.392 38.9219 134.111 38.8594C134.829 38.7969 135.533 38.7031 136.22 38.5781C136.908 38.4219 137.501 38.2031 138.001 37.9219C138.533 37.6094 138.954 37.2188 139.267 36.75C139.611 36.2812 139.783 35.7031 139.783 35.0156V34.7812L139.314 34.3125C139.251 34.3125 139.126 34.3125 138.939 34.3125C138.783 34.2812 138.611 34.2656 138.423 34.2656C138.236 34.2344 138.048 34.2188 137.861 34.2188C137.704 34.2188 137.579 34.2188 137.486 34.2188ZM161.397 37.9219C160.304 37.9219 159.335 38.125 158.491 38.5312C157.679 38.9062 156.944 39.4062 156.288 40.0312C155.632 40.6562 155.085 41.3281 154.647 42.0469C154.21 42.7344 153.819 43.3906 153.476 44.0156C153.163 44.6406 152.913 45.1562 152.726 45.5625C152.569 45.9688 152.46 46.1719 152.397 46.1719C151.554 46.1719 150.96 45.9531 150.616 45.5156C150.272 45.0781 150.054 44.5469 149.96 43.9219C149.866 43.2656 149.851 42.5938 149.913 41.9062C150.007 41.1875 150.054 40.5625 150.054 40.0312V39.2344C150.054 38.8594 150.054 38.4688 150.054 38.0625C150.085 37.6562 150.101 37.2812 150.101 36.9375V36.1406C150.194 35.8906 150.319 35.75 150.476 35.7188C150.632 35.6875 150.804 35.6719 150.991 35.6719C151.272 35.6719 151.507 35.8438 151.694 36.1875C151.882 36.5 152.054 36.8906 152.21 37.3594C152.366 37.8281 152.491 38.2969 152.585 38.7656C152.679 39.2031 152.757 39.5469 152.819 39.7969C153.194 39.7344 153.538 39.5781 153.851 39.3281C154.163 39.0781 154.476 38.7812 154.788 38.4375C155.132 38.0938 155.491 37.7344 155.866 37.3594C156.241 36.9844 156.679 36.6406 157.179 36.3281C157.679 35.9844 158.257 35.7031 158.913 35.4844C159.601 35.2656 160.382 35.1562 161.257 35.1562C163.007 35.1562 164.444 35.5469 165.569 36.3281C166.694 37.0781 167.554 38.0781 168.147 39.3281C168.772 40.5469 169.194 41.9375 169.413 43.5C169.632 45.0312 169.741 46.5938 169.741 48.1875C168.804 48.1875 168.069 48.0469 167.538 47.7656C167.038 47.4531 166.679 47.0625 166.46 46.5938C166.241 46.0938 166.116 45.5469 166.085 44.9531C166.054 44.3281 166.038 43.7031 166.038 43.0781C166.038 42.4219 165.991 41.7812 165.897 41.1562C165.835 40.5312 165.647 39.9844 165.335 39.5156C165.054 39.0469 164.601 38.6719 163.976 38.3906C163.382 38.0781 162.522 37.9219 161.397 37.9219ZM176.966 35.7656C176.091 35.7656 175.278 35.8438 174.528 36C173.809 36.125 173.012 36.1875 172.137 36.1875C171.794 36.1875 171.575 36.0625 171.481 35.8125C171.387 35.5312 171.341 35.2656 171.341 35.0156V34.7812C171.403 34.6562 171.497 34.5 171.622 34.3125C171.778 34.125 171.934 33.9531 172.091 33.7969C172.247 33.6094 172.372 33.4531 172.466 33.3281C172.591 33.2031 172.669 33.1406 172.7 33.1406H177.012V26.1094C177.012 25.9844 177.059 25.8906 177.153 25.8281C177.247 25.7656 177.356 25.7188 177.481 25.6875C177.637 25.625 177.778 25.5938 177.903 25.5938C178.028 25.5625 178.122 25.5469 178.184 25.5469C178.684 25.5469 179.044 25.7344 179.262 26.1094C179.512 26.4531 179.669 26.8906 179.731 27.4219C179.825 27.9531 179.856 28.5312 179.825 29.1562C179.825 29.7812 179.825 30.3594 179.825 30.8906C179.825 31.4219 179.856 31.8906 179.919 32.2969C180.012 32.6719 180.2 32.875 180.481 32.9062C180.731 32.9375 181.2 33 181.887 33.0938C182.606 33.1562 183.341 33.25 184.091 33.375C184.872 33.4688 185.606 33.5625 186.294 33.6562C186.981 33.75 187.481 33.8125 187.794 33.8438C187.856 33.8438 187.966 33.875 188.122 33.9375C188.309 33.9688 188.497 34 188.684 34.0312C188.903 34.0625 189.091 34.1094 189.247 34.1719C189.403 34.2344 189.512 34.2812 189.575 34.3125C189.637 34.3125 189.731 34.375 189.856 34.5C189.981 34.625 190.044 34.7188 190.044 34.7812C190.044 35 189.981 35.2031 189.856 35.3906C189.731 35.5781 189.575 35.7344 189.387 35.8594C189.2 35.9531 188.997 36.0312 188.778 36.0938C188.591 36.125 188.403 36.1406 188.216 36.1406C188.153 36.1406 187.981 36.125 187.7 36.0938C187.419 36.0312 187.122 35.9688 186.809 35.9062C186.528 35.8438 186.247 35.7969 185.966 35.7656C185.716 35.7031 185.559 35.6719 185.497 35.6719H185.028C184.747 35.6719 184.45 35.6719 184.137 35.6719C183.825 35.6719 183.512 35.6719 183.2 35.6719H181.934C181.716 35.6719 181.497 35.6719 181.278 35.6719C181.059 35.6719 180.872 35.6719 180.716 35.6719H180.481L180.012 36.1406C180.012 36.1719 180.012 36.2812 180.012 36.4688C180.012 36.6562 179.997 36.875 179.966 37.125C179.934 37.375 179.903 37.6406 179.872 37.9219C179.872 38.1719 179.872 38.375 179.872 38.5312C179.872 40.2188 180.044 41.5469 180.387 42.5156C180.731 43.4844 181.262 44.2188 181.981 44.7188C182.731 45.1875 183.669 45.4844 184.794 45.6094C185.95 45.7031 187.356 45.75 189.012 45.75C189.2 45.75 189.45 45.75 189.762 45.75C190.075 45.75 190.387 45.75 190.7 45.75C191.012 45.75 191.278 45.75 191.497 45.75C191.716 45.7188 191.841 45.7031 191.872 45.7031C191.903 45.7031 191.981 45.6875 192.106 45.6562C192.231 45.5938 192.372 45.5469 192.528 45.5156C192.716 45.4531 192.856 45.3906 192.95 45.3281C193.075 45.2656 193.169 45.2344 193.231 45.2344C193.356 45.2344 193.45 45.2969 193.512 45.4219C193.606 45.5156 193.669 45.6406 193.7 45.7969C193.731 45.9531 193.747 46.0938 193.747 46.2188V46.5469C193.747 47.0469 193.637 47.4062 193.419 47.625C193.2 47.8438 192.684 47.9688 191.872 48H191.075C190.7 48 190.309 48 189.903 48C189.528 48.0312 189.137 48.0469 188.731 48.0469H188.028C186.247 48.0469 184.731 47.9844 183.481 47.8594C182.231 47.7031 181.2 47.4688 180.387 47.1562C179.575 46.8125 178.934 46.3594 178.466 45.7969C177.997 45.2344 177.653 44.5 177.434 43.5938C177.247 42.6875 177.122 41.5938 177.059 40.3125C176.997 39.0312 176.966 37.5156 176.966 35.7656ZM211.049 43.875C210.237 43.875 209.424 44.0781 208.612 44.4844C207.831 44.8594 207.018 45.2969 206.174 45.7969C205.331 46.2969 204.456 46.75 203.549 47.1562C202.643 47.5312 201.721 47.7188 200.784 47.7188C200.659 47.7188 200.471 47.7188 200.221 47.7188C199.971 47.6875 199.69 47.6719 199.378 47.6719C199.096 47.6406 198.831 47.625 198.581 47.625C198.331 47.625 198.159 47.6094 198.065 47.5781C197.471 47.2344 196.987 46.8281 196.612 46.3594C196.268 45.8906 195.987 45.3906 195.768 44.8594C195.581 44.2969 195.44 43.7188 195.346 43.125C195.253 42.5312 195.206 41.9375 195.206 41.3438V40.0312C195.206 39.4688 195.221 38.8594 195.253 38.2031C195.315 37.5469 195.378 36.875 195.44 36.1875C195.534 35.5 195.659 34.875 195.815 34.3125C195.971 33.7188 196.19 33.2188 196.471 32.8125C196.753 32.4062 197.128 32.1406 197.596 32.0156C197.784 31.9531 197.971 32 198.159 32.1562C198.346 32.3125 198.487 32.5 198.581 32.7188C198.706 32.9062 198.799 33.125 198.862 33.375C198.924 33.5938 198.956 33.75 198.956 33.8438C198.956 33.9375 198.909 34.1406 198.815 34.4531C198.721 34.7656 198.612 35.1094 198.487 35.4844C198.393 35.8281 198.299 36.1562 198.206 36.4688C198.112 36.7812 198.065 36.9688 198.065 37.0312C198.065 37.0625 198.049 37.2031 198.018 37.4531C198.018 37.6719 198.003 37.9219 197.971 38.2031C197.971 38.4844 197.971 38.7969 197.971 39.1406C197.971 39.4531 197.971 39.7031 197.971 39.8906C197.971 40.2969 197.956 40.7656 197.924 41.2969C197.893 41.7969 197.909 42.2969 197.971 42.7969C198.065 43.2969 198.206 43.7656 198.393 44.2031C198.581 44.6406 198.924 44.9844 199.424 45.2344C199.456 45.2344 199.549 45.25 199.706 45.2812C199.893 45.2812 200.081 45.2812 200.268 45.2812C200.487 45.2812 200.674 45.2969 200.831 45.3281C201.018 45.3281 201.143 45.3281 201.206 45.3281C202.893 45.3281 204.487 44.9531 205.987 44.2031C207.487 43.4531 208.799 42.4375 209.924 41.1562C209.893 40.9688 209.862 40.6094 209.831 40.0781C209.831 39.5469 209.831 39 209.831 38.4375C209.831 37.8438 209.831 37.2969 209.831 36.7969C209.862 36.2656 209.893 35.8906 209.924 35.6719C209.924 35.4844 209.956 35.2969 210.018 35.1094C210.081 34.8906 210.159 34.6875 210.253 34.5C210.346 34.3125 210.471 34.1562 210.628 34.0312C210.815 33.9062 211.018 33.8438 211.237 33.8438C211.706 33.8438 212.034 34.0156 212.221 34.3594C212.409 34.7031 212.534 35.1562 212.596 35.7188C212.69 36.2812 212.753 36.9375 212.784 37.6875C212.846 38.4062 212.956 39.1406 213.112 39.8906C213.268 40.6406 213.534 41.3906 213.909 42.1406C214.284 42.8594 214.831 43.5156 215.549 44.1094C216.268 44.6719 217.206 45.1562 218.362 45.5625C219.518 45.9375 220.971 46.1406 222.721 46.1719C222.721 46.2344 222.721 46.3125 222.721 46.4062C222.721 46.5 222.721 46.5781 222.721 46.6406C222.721 47.1094 222.518 47.4531 222.112 47.6719C221.706 47.8594 221.206 47.9844 220.612 48.0469C220.049 48.1094 219.487 48.125 218.924 48.0938C218.362 48.0625 217.94 48.0469 217.659 48.0469C216.721 48.0469 215.878 47.8281 215.128 47.3906C214.378 46.9531 213.706 46.4844 213.112 45.9844C212.518 45.4531 212.034 44.9688 211.659 44.5312C211.315 44.0938 211.112 43.875 211.049 43.875ZM225.211 38.8594C225.18 38.8594 225.102 38.8125 224.977 38.7188C224.852 38.5938 224.789 38.4844 224.789 38.3906C224.758 38.3906 224.742 38.3594 224.742 38.2969V38.0625C224.742 38.0312 224.758 38 224.789 37.9688C225.133 37.625 225.414 37.375 225.633 37.2188C225.883 37.0625 226.211 36.9844 226.617 36.9844C226.742 36.9844 226.852 37.0156 226.946 37.0781C227.071 37.1406 227.164 37.2031 227.227 37.2656C227.289 37.3281 227.352 37.3906 227.414 37.4531C227.508 37.5156 227.602 37.5469 227.696 37.5469C227.789 37.5469 227.977 37.4062 228.258 37.125C228.539 36.8125 228.914 36.4375 229.383 36C229.852 35.5625 230.43 35.0938 231.117 34.5938C231.805 34.0625 232.571 33.5781 233.414 33.1406C234.289 32.7031 235.227 32.3438 236.227 32.0625C237.258 31.75 238.383 31.5938 239.602 31.5938H239.883C240.008 31.625 240.258 31.6875 240.633 31.7812C241.039 31.8438 241.461 31.9375 241.899 32.0625C242.336 32.1562 242.742 32.25 243.117 32.3438C243.524 32.4062 243.805 32.4531 243.961 32.4844C243.992 32.5156 244.055 32.5781 244.149 32.6719C244.242 32.7344 244.336 32.8125 244.43 32.9062C244.524 32.9688 244.602 33.0469 244.664 33.1406C244.758 33.2344 244.821 33.3125 244.852 33.375C244.852 33.4062 244.867 33.4531 244.899 33.5156C244.899 33.5156 244.899 33.5312 244.899 33.5625C244.93 33.5938 244.946 33.6094 244.946 33.6094L244.899 33.7031C244.899 33.7031 244.899 33.7188 244.899 33.75C244.867 33.7812 244.852 33.8125 244.852 33.8438C244.821 33.9375 244.742 34.0469 244.617 34.1719C244.492 34.2656 244.43 34.3125 244.43 34.3125H236.18C235.492 34.3125 234.742 34.5156 233.93 34.9219C233.149 35.2969 232.399 35.7969 231.68 36.4219C230.992 37.0156 230.414 37.7031 229.946 38.4844C229.508 39.2344 229.289 39.9688 229.289 40.6875V47.3438C228.946 47.3438 228.696 47.3906 228.539 47.4844C228.383 47.5469 228.242 47.625 228.117 47.7188C228.024 47.8125 227.914 47.8906 227.789 47.9531C227.664 48.0156 227.492 48.0469 227.274 48.0469H227.18C227.149 48.0469 227.117 48.0312 227.086 48C226.961 47.9688 226.852 47.9062 226.758 47.8125C226.664 47.6875 226.617 47.6094 226.617 47.5781L225.211 38.8594ZM246.404 39.75C246.404 38.6875 246.701 37.6562 247.295 36.6562C247.889 35.6562 248.639 34.7812 249.545 34.0312C250.482 33.2812 251.498 32.6875 252.592 32.25C253.717 31.8125 254.779 31.5938 255.779 31.5938C256.592 31.5938 257.389 31.7031 258.17 31.9219C258.982 32.1094 259.701 32.4219 260.326 32.8594C260.951 33.2969 261.451 33.8438 261.826 34.5C262.232 35.125 262.436 35.875 262.436 36.75C262.436 37.1562 262.404 37.4844 262.342 37.7344C262.311 37.9531 262.217 38.1562 262.061 38.3438C261.904 38.5 261.701 38.6562 261.451 38.8125C261.232 38.9375 260.951 39.1094 260.607 39.3281C260.42 39.3594 260.139 39.4375 259.764 39.5625C259.389 39.6562 258.951 39.7656 258.451 39.8906C257.982 40.0156 257.482 40.1406 256.951 40.2656C256.42 40.3906 255.904 40.5156 255.404 40.6406C254.936 40.7656 254.514 40.875 254.139 40.9688C253.764 41.0625 253.482 41.125 253.295 41.1562C253.201 41.1875 252.998 41.2188 252.686 41.25C252.373 41.2812 252.029 41.3281 251.654 41.3906C251.311 41.4219 250.982 41.4688 250.67 41.5312C250.357 41.5625 250.17 41.5938 250.107 41.625C250.014 41.6562 249.904 41.7344 249.779 41.8594C249.686 41.9531 249.639 42.0156 249.639 42.0469C249.639 42.6719 249.811 43.2031 250.154 43.6406C250.498 44.0469 250.936 44.3906 251.467 44.6719C251.998 44.9531 252.592 45.1719 253.248 45.3281C253.936 45.4531 254.607 45.5625 255.264 45.6562C255.92 45.7188 256.529 45.75 257.092 45.75C257.654 45.75 258.107 45.75 258.451 45.75C260.014 45.75 261.545 45.6719 263.045 45.5156C264.545 45.3281 266.076 45.2344 267.639 45.2344V45.6094C267.639 45.7969 267.607 46 267.545 46.2188C267.514 46.4062 267.451 46.5938 267.357 46.7812C267.264 46.9375 267.139 47.0312 266.982 47.0625C265.795 47.3125 264.732 47.5156 263.795 47.6719C262.889 47.7969 262.029 47.8906 261.217 47.9531C260.404 47.9844 259.561 48 258.686 48C257.811 48.0312 256.842 48.0469 255.779 48.0469H254.982C254.639 48.0469 254.264 48.0312 253.857 48C253.451 48 253.061 48 252.686 48H251.889C250.92 47.75 250.076 47.3594 249.357 46.8281C248.67 46.2656 248.107 45.6094 247.67 44.8594C247.232 44.1094 246.904 43.2969 246.686 42.4219C246.498 41.5469 246.404 40.6562 246.404 39.75ZM256.904 34.2188C256.498 34.2188 256.029 34.2656 255.498 34.3594C254.998 34.4219 254.467 34.5469 253.904 34.7344C253.373 34.8906 252.842 35.1094 252.311 35.3906C251.779 35.6406 251.311 35.9531 250.904 36.3281C250.498 36.6719 250.154 37.0625 249.873 37.5C249.623 37.9375 249.498 38.4219 249.498 38.9531H251.42C252.107 38.9531 252.811 38.9219 253.529 38.8594C254.248 38.7969 254.951 38.7031 255.639 38.5781C256.326 38.4219 256.92 38.2031 257.42 37.9219C257.951 37.6094 258.373 37.2188 258.686 36.75C259.029 36.2812 259.201 35.7031 259.201 35.0156V34.7812L258.732 34.3125C258.67 34.3125 258.545 34.3125 258.357 34.3125C258.201 34.2812 258.029 34.2656 257.842 34.2656C257.654 34.2344 257.467 34.2188 257.279 34.2188C257.123 34.2188 256.998 34.2188 256.904 34.2188ZM273.551 45.1406V44.1562C273.551 43.75 273.582 43.3594 273.644 42.9844C273.707 42.6094 273.832 42.2812 274.019 42C274.207 41.7188 274.473 41.5781 274.816 41.5781V41.625H274.957L275.894 45.2344C275.894 45.3594 275.957 45.4531 276.082 45.5156C276.207 45.5781 276.332 45.6406 276.457 45.7031C276.613 45.7344 276.754 45.75 276.879 45.75C277.035 45.75 277.16 45.75 277.254 45.75C277.316 45.75 277.394 45.75 277.488 45.75C277.613 45.7188 277.691 45.7031 277.723 45.7031C277.91 45.6719 278.269 45.5938 278.801 45.4688C279.332 45.3125 279.879 45.1719 280.441 45.0469C281.035 44.9219 281.582 44.7969 282.082 44.6719C282.613 44.5156 282.988 44.4219 283.207 44.3906C283.363 44.1406 283.598 43.9219 283.91 43.7344C284.223 43.5156 284.535 43.3125 284.848 43.125C285.16 42.9375 285.426 42.7344 285.644 42.5156C285.863 42.2969 285.973 42.0156 285.973 41.6719C285.973 40.8906 285.769 40.2656 285.363 39.7969C284.988 39.3281 284.488 38.9844 283.863 38.7656C283.269 38.5156 282.629 38.3438 281.941 38.25C281.254 38.1562 280.598 38.0625 279.973 37.9688C279.723 37.9375 279.316 37.8906 278.754 37.8281C278.223 37.7344 277.613 37.6406 276.926 37.5469C276.238 37.4531 275.519 37.3594 274.769 37.2656C274.019 37.1406 273.285 37.0469 272.566 36.9844C271.879 36.8906 271.254 36.8125 270.691 36.75C270.16 36.6875 269.769 36.6406 269.519 36.6094C269.332 36.4844 269.129 36.2656 268.91 35.9531C268.691 35.6406 268.582 35.3906 268.582 35.2031C268.582 34.6719 268.863 34.1875 269.426 33.75C270.019 33.2812 270.754 32.8594 271.629 32.4844C272.504 32.1094 273.488 31.7812 274.582 31.5C275.707 31.2188 276.801 30.9688 277.863 30.75C278.957 30.5312 279.957 30.375 280.863 30.2812C281.801 30.1875 282.519 30.1406 283.019 30.1406C283.394 30.1406 283.738 30.2656 284.051 30.5156C284.394 30.7656 284.566 31.125 284.566 31.5938C284.566 31.9688 284.457 32.25 284.238 32.4375C284.051 32.5938 283.801 32.7031 283.488 32.7656C283.207 32.7969 282.91 32.8281 282.598 32.8594C282.316 32.8594 282.051 32.875 281.801 32.9062C281.301 33 280.66 33.125 279.879 33.2812C279.129 33.4375 278.379 33.5938 277.629 33.75C276.879 33.9062 276.254 34.0312 275.754 34.125L274.957 34.3125V34.8281C275.551 34.8281 276.301 34.8438 277.207 34.875C278.113 34.9062 279.082 34.9844 280.113 35.1094C281.144 35.2344 282.16 35.4375 283.16 35.7188C284.191 35.9688 285.113 36.3281 285.926 36.7969C286.738 37.2344 287.394 37.7969 287.894 38.4844C288.426 39.1406 288.691 39.9531 288.691 40.9219C288.691 42.2344 288.332 43.3438 287.613 44.25C286.894 45.1562 285.988 45.8906 284.894 46.4531C283.801 47.0156 282.613 47.4219 281.332 47.6719C280.051 47.9219 278.863 48.0469 277.769 48.0469C277.332 48.0469 276.863 48.0156 276.363 47.9531C275.863 47.8594 275.394 47.7031 274.957 47.4844C274.551 47.2656 274.207 46.9688 273.926 46.5938C273.676 46.2188 273.551 45.7344 273.551 45.1406Z" fill="black"/>
<path d="M2.208 133.36C3.392 133.104 4.432 132.816 5.328 132.496C6.224 132.176 7.04 131.776 7.776 131.296C8.544 130.816 9.264 130.224 9.936 129.52C10.64 128.816 11.392 127.952 12.192 126.928H17.136L15.744 133.36H19.488L18.864 136.576H15.072L13.104 145.936C12.944 146.672 12.816 147.328 12.72 147.904C12.624 148.48 12.576 148.928 12.576 149.248C12.576 149.888 12.8 150.288 13.248 150.448C13.728 150.608 14.608 150.688 15.888 150.688L15.168 154C14.944 154.064 14.592 154.112 14.112 154.144C13.664 154.176 13.152 154.208 12.576 154.24C12.032 154.304 11.456 154.336 10.848 154.336C10.272 154.368 9.76 154.384 9.312 154.384C8.512 154.384 7.728 154.32 6.96 154.192C6.192 154.096 5.504 153.888 4.896 153.568C4.288 153.216 3.792 152.72 3.408 152.08C3.056 151.44 2.88 150.576 2.88 149.488C2.88 149.104 2.896 148.624 2.928 148.048C2.992 147.472 3.104 146.832 3.264 146.128L5.28 136.576H1.536L2.208 133.36ZM22.9249 133.36H30.7489L31.4689 136.96H31.8049C32.5409 135.808 33.4849 134.832 34.6369 134.032C35.7889 133.232 37.3089 132.832 39.1969 132.832C39.3249 132.832 39.5169 132.848 39.7729 132.88C40.0609 132.88 40.3649 132.928 40.6849 133.024C41.0369 133.088 41.3889 133.2 41.7409 133.36C42.1249 133.488 42.4929 133.68 42.8449 133.936L40.7329 143.824H35.5009C35.4369 141.84 35.2609 140.464 34.9729 139.696C34.6849 138.896 34.2209 138.496 33.5809 138.496C33.2609 138.496 32.9089 138.576 32.5249 138.736C32.1729 138.864 31.8049 139.168 31.4209 139.648L28.3489 154H18.5569L22.9249 133.36ZM52.944 144.352C52.816 145.056 52.72 145.728 52.656 146.368C52.624 147.008 52.608 147.584 52.608 148.096C52.608 148.384 52.624 148.704 52.656 149.056C52.688 149.408 52.752 149.744 52.848 150.064C52.976 150.352 53.136 150.608 53.328 150.832C53.552 151.024 53.856 151.12 54.24 151.12C54.528 151.12 54.848 151.024 55.2 150.832C55.584 150.64 55.952 150.368 56.304 150.016C56.688 149.664 57.04 149.232 57.36 148.72C57.712 148.208 57.984 147.632 58.176 146.992H66.048L64.8 152.128C64.16 152.544 63.424 152.896 62.592 153.184C61.76 153.472 60.88 153.712 59.952 153.904C59.024 154.064 58.08 154.176 57.12 154.24C56.16 154.336 55.248 154.384 54.384 154.384C52.784 154.384 51.296 154.24 49.92 153.952C48.544 153.664 47.344 153.168 46.32 152.464C45.296 151.76 44.48 150.832 43.872 149.68C43.296 148.496 43.008 147.04 43.008 145.312C43.008 143.744 43.248 142.208 43.728 140.704C44.24 139.2 45.072 137.872 46.224 136.72C47.408 135.536 48.976 134.592 50.928 133.888C52.912 133.184 55.376 132.832 58.32 132.832C61.52 132.832 63.92 133.328 65.52 134.32C67.152 135.312 67.968 136.864 67.968 138.976C67.968 139.84 67.84 140.784 67.584 141.808C67.328 142.8 66.944 143.648 66.432 144.352H52.944ZM59.328 138.64C59.328 137.648 59.168 136.976 58.848 136.624C58.528 136.272 58.144 136.096 57.696 136.096C57.184 136.096 56.704 136.272 56.256 136.624C55.84 136.944 55.456 137.392 55.104 137.968C54.752 138.512 54.432 139.152 54.144 139.888C53.856 140.592 53.616 141.344 53.424 142.144H58.896C58.96 141.76 59.024 141.36 59.088 140.944C59.152 140.592 59.2 140.208 59.232 139.792C59.296 139.376 59.328 138.992 59.328 138.64ZM80.826 142.096L92.01 133.36H98.346L88.794 141.184L95.946 154H85.194L80.298 144.352L78.282 154H68.49L75.306 121.744H85.146L80.826 142.096Z" fill="black"/>
<path d="M419.36 104.88C418.016 104.88 416.768 104.496 415.616 103.728C414.4 102.96 413.28 102.16 412.256 101.328C411.808 100.944 411.488 100.4 411.296 99.696C411.04 98.992 410.88 98.416 410.816 97.968C410.752 97.648 410.688 97.296 410.624 96.912C410.56 96.528 410.496 96.144 410.432 95.76C410.432 95.632 410.432 95.472 410.432 95.28C410.368 95.152 410.336 94.992 410.336 94.8C410.336 94.224 410.432 93.648 410.624 93.072L410.72 92.688C410.848 92.304 410.912 92.08 410.912 92.016C410.912 91.888 410.88 91.76 410.816 91.632C410.752 91.504 410.688 91.312 410.624 91.056C410.816 90.8 410.944 90.48 411.008 90.096C411.072 89.776 411.136 89.488 411.2 89.232C411.328 88.784 411.424 88.336 411.488 87.888C411.488 87.504 411.52 87.088 411.584 86.64C411.712 86.192 411.904 85.744 412.16 85.296C412.352 84.912 412.48 84.496 412.544 84.048C412.608 83.728 412.672 83.408 412.736 83.088C412.736 82.832 412.768 82.576 412.832 82.32C413.216 81.424 413.504 80.592 413.696 79.824C413.824 79.056 414.048 78.224 414.368 77.328L414.08 77.04C413.44 76.592 413.12 75.92 413.12 75.024C413.12 74.128 413.632 73.456 414.656 73.008C415.616 72.56 416.416 72.208 417.056 71.952C417.632 71.76 418.016 71.568 418.208 71.376C418.272 71.376 418.432 70.96 418.688 70.128C418.944 69.232 419.072 68.688 419.072 68.496C419.264 68.496 419.392 68.368 419.456 68.112C419.584 67.792 419.648 67.44 419.648 67.056C419.712 66.672 419.84 66.384 420.032 66.192L419.936 65.712L420.128 65.616L420.032 65.232C420.736 64.976 421.152 64.4 421.28 63.504C421.472 62.544 421.76 61.808 422.144 61.296C422.336 61.04 422.528 60.816 422.72 60.624C422.912 60.432 423.072 60.208 423.2 59.952C423.328 59.696 423.392 59.536 423.392 59.472L423.488 59.184C423.616 58.864 423.808 58.544 424.064 58.224C424.384 57.84 424.64 57.52 424.832 57.264V57.168L424.928 56.976C425.184 56.72 425.344 56.528 425.408 56.4C425.472 56.272 425.568 56.144 425.696 56.016V55.824L425.888 55.632L426.176 55.44V55.248L426.368 55.152V54.96L426.656 54.384C426.784 54.32 426.848 54.224 426.848 54.096L427.136 53.904H427.232C427.296 53.84 427.328 53.712 427.328 53.52H427.424L427.808 53.328C427.872 53.264 428 53.168 428.192 53.04V52.656L428.672 52.464L428.768 52.368V52.08L429.056 51.888C429.12 51.824 429.216 51.728 429.344 51.6C429.472 51.472 429.504 51.376 429.44 51.312C429.504 51.184 429.856 50.768 430.496 50.064C431.2 49.36 431.936 48.624 432.704 47.856C433.472 47.088 433.952 46.608 434.144 46.416C434.272 46.096 434.432 45.84 434.624 45.648C434.816 45.456 435.04 45.296 435.296 45.168L435.488 44.976L435.392 44.88C435.712 44.752 435.936 44.624 436.064 44.496C436.192 44.368 436.384 44.176 436.64 43.92C437.024 43.408 437.344 43.12 437.6 43.056C437.792 42.736 438.112 42.544 438.56 42.48C439.008 42.352 439.488 42.288 440 42.288C441.024 42.288 441.856 42.416 442.496 42.672C443.52 42.736 444.448 43.088 445.28 43.728C446.112 44.368 446.656 45.2 446.912 46.224L446.048 46.608C445.856 46.096 445.6 45.84 445.28 45.84H444.704C444.64 45.776 444.544 45.744 444.416 45.744C443.648 45.744 442.784 46.096 441.824 46.8C440.864 47.44 439.936 48.144 439.04 48.912C438.144 49.68 437.28 50.256 436.448 50.64C435.808 51.472 435.008 52.144 434.048 52.656C433.92 52.72 433.536 53.136 432.896 53.904C432.256 54.672 431.616 55.472 430.976 56.304C430.336 57.072 429.952 57.584 429.824 57.84C429.888 57.904 429.888 58.032 429.824 58.224L429.536 58.32C429.28 58.768 428.992 59.184 428.672 59.568C428.416 59.952 428.096 60.304 427.712 60.624C427.712 60.624 427.776 60.752 427.904 61.008C427.648 61.008 427.488 61.04 427.424 61.104C427.36 61.104 427.328 61.104 427.328 61.104C427.072 61.296 426.816 61.584 426.56 61.968C426.368 62.288 426.208 62.608 426.08 62.928C425.824 63.248 425.6 63.568 425.408 63.888C425.216 64.208 424.992 64.464 424.736 64.656L424.832 64.944C424.192 65.392 423.712 65.968 423.392 66.672C423.072 67.376 422.848 68.08 422.72 68.784C422.72 68.912 422.656 69.04 422.528 69.168L422.24 69.552C422.112 69.68 422.016 69.872 421.952 70.128C421.888 70.32 422.016 70.416 422.336 70.416C422.464 70.416 422.592 70.416 422.72 70.416C422.848 70.352 422.976 70.32 423.104 70.32L423.392 69.936C423.52 70.064 423.648 70.128 423.776 70.128C424.288 70.128 424.864 70 425.504 69.744H425.888C426.336 69.744 426.752 69.712 427.136 69.648C427.52 69.584 427.936 69.552 428.384 69.552C428.768 69.424 429.152 69.296 429.536 69.168C429.92 68.976 430.304 68.848 430.688 68.784C430.944 68.72 431.52 68.592 432.416 68.4C433.376 68.144 433.92 67.952 434.048 67.824C434.56 67.76 435.072 67.664 435.584 67.536C436.16 67.408 436.672 67.312 437.12 67.248C437.376 67.248 437.6 67.248 437.792 67.248C437.984 67.248 438.208 67.216 438.464 67.152C438.592 67.152 438.72 67.12 438.848 67.056C438.976 66.992 439.104 66.96 439.232 66.96V66.864C439.68 66.864 440.064 66.864 440.384 66.864C440.704 66.8 440.992 66.768 441.248 66.768L441.44 66.576H441.632C441.76 66.576 441.952 66.672 442.208 66.864C442.528 66.992 442.688 67.216 442.688 67.536H442.4C442.144 67.6 441.824 67.664 441.44 67.728C441.12 67.792 440.8 67.856 440.48 67.92C440.16 67.984 439.84 68.048 439.52 68.112C439.264 68.176 439.168 68.368 439.232 68.688L438.56 68.592C438.24 69.04 437.76 69.264 437.12 69.264C436.864 69.456 436.608 69.616 436.352 69.744C436.096 69.872 435.84 70 435.584 70.128C434.88 70.512 434.56 70.832 434.624 71.088C434.624 71.28 434.816 71.536 435.2 71.856C435.584 72.112 435.84 72.304 435.968 72.432C436.736 73.2 437.568 74.128 438.464 75.216C439.424 76.304 439.968 77.424 440.096 78.576C440.096 79.088 440.032 79.568 439.904 80.016C439.84 80.528 439.776 81.04 439.712 81.552V81.936C439.712 82.192 439.712 82.448 439.712 82.704C439.776 82.96 439.84 83.248 439.904 83.568H439.616C439.36 83.824 439.104 84.24 438.848 84.816C438.656 85.392 438.592 85.904 438.656 86.352H438.464C438.08 86.736 437.952 87.376 438.08 88.272H437.792V88.56L437.408 88.752C437.28 89.136 437.12 89.424 436.928 89.616C436.928 89.872 436.832 90.192 436.64 90.576C436.448 90.96 436.192 91.216 435.872 91.344C435.808 91.6 435.68 91.92 435.488 92.304C435.36 92.688 435.168 92.944 434.912 93.072C434.848 93.136 434.784 93.2 434.72 93.264C434.72 93.392 434.688 93.52 434.624 93.648L434.144 94.512C433.824 95.024 433.6 95.568 433.472 96.144L432.416 96.24C432.288 96.368 432.224 96.464 432.224 96.528L432.32 96.72C432.384 96.976 432.32 97.264 432.128 97.584C431.744 97.904 431.424 98.288 431.168 98.736C430.912 99.184 430.624 99.6 430.304 99.984C430.112 100.176 429.888 100.336 429.632 100.464L429.344 100.656C429.216 100.784 429.12 100.848 429.056 100.848C427.904 101.872 426.464 102.8 424.736 103.632C423.008 104.464 421.216 104.88 419.36 104.88ZM419.456 102.384C419.776 102.384 420.064 102.352 420.32 102.288C420.64 102.288 420.96 102.288 421.28 102.288C422.24 101.904 422.88 101.584 423.2 101.328C423.328 101.264 423.52 101.104 423.776 100.848C423.904 100.72 424.032 100.592 424.16 100.464C424.288 100.336 424.48 100.176 424.736 99.984L424.928 99.504C425.44 99.056 425.824 98.608 426.08 98.16C426.4 97.776 426.752 97.36 427.136 96.912C427.328 96.72 427.488 96.528 427.616 96.336C427.808 96.208 427.936 96.016 428 95.76C428.192 95.504 428.32 95.248 428.384 94.992C428.64 94.672 428.864 94.352 429.056 94.032C429.312 93.776 429.536 93.488 429.728 93.168C430.432 92.08 431.008 90.96 431.456 89.808C431.968 88.656 432.544 87.536 433.184 86.448V86.064C433.184 85.872 433.184 85.712 433.184 85.584C433.248 85.456 433.312 85.328 433.376 85.2L433.664 84.72C433.92 84.336 434.144 83.728 434.336 82.896C434.592 82.064 434.784 81.2 434.912 80.304C435.104 79.472 435.232 78.832 435.296 78.384C435.296 78.256 435.328 78.096 435.392 77.904C435.456 77.648 435.52 77.488 435.584 77.424V77.136C435.712 77.008 435.712 76.912 435.584 76.848L434.816 74.352C434.56 73.584 434.016 72.88 433.184 72.24C432.352 71.536 431.552 71.152 430.784 71.088L427.52 72.24C427.264 72.368 427.008 72.496 426.752 72.624C426.496 72.752 426.208 72.88 425.888 73.008C425.568 73.136 425.184 73.264 424.736 73.392C424.352 73.456 424 73.552 423.68 73.68C423.424 73.744 423.2 73.872 423.008 74.064C422.816 74.192 422.624 74.32 422.432 74.448C421.6 74.832 420.928 75.184 420.416 75.504C419.904 75.824 419.584 76.24 419.456 76.752C419.328 77.136 419.264 77.552 419.264 78C419.264 78.128 419.264 78.288 419.264 78.48C419.328 78.672 419.296 78.864 419.168 79.056C418.912 79.76 418.592 80.464 418.208 81.168C417.888 81.872 417.632 82.576 417.44 83.28C417.248 83.856 417.12 84.272 417.056 84.528C416.992 84.848 416.928 85.328 416.864 85.968L416.48 87.12C416.096 88.08 415.84 89.104 415.712 90.192C415.52 91.344 415.424 92.464 415.424 93.552C415.424 93.872 415.424 94.224 415.424 94.608C415.424 94.992 415.456 95.344 415.52 95.664C415.584 96.368 415.744 97.232 416 98.256C416.256 99.344 416.672 100.304 417.248 101.136C417.824 101.968 418.56 102.384 419.456 102.384ZM448.735 79.056C447.519 79.056 446.559 78.64 445.855 77.808C445.215 76.912 444.895 75.92 444.895 74.832C444.895 73.36 445.183 71.728 445.759 69.936C446.335 68.08 446.879 66.544 447.391 65.328C447.519 64.88 447.711 64.496 447.967 64.176C448.223 63.792 448.351 63.344 448.351 62.832C448.543 62.64 448.735 62.288 448.927 61.776C449.183 61.264 449.343 60.88 449.407 60.624C449.151 60.816 448.831 61.104 448.447 61.488C448.063 61.872 447.711 62.128 447.391 62.256L447.103 62.16C446.911 61.904 446.911 61.616 447.103 61.296C447.231 61.168 447.391 60.976 447.583 60.72C447.839 60.4 448.095 60.112 448.351 59.856C448.607 59.536 448.831 59.248 449.023 58.992C449.279 58.736 449.439 58.544 449.503 58.416C449.951 57.904 450.303 57.52 450.559 57.264C450.815 56.944 451.263 56.56 451.903 56.112C452.223 56.176 452.735 56.304 453.439 56.496C454.207 56.624 454.943 56.848 455.647 57.168C456.351 57.424 456.703 57.776 456.703 58.224C456.767 58.608 456.511 59.216 455.935 60.048C455.423 60.816 454.847 61.584 454.207 62.352C453.631 63.12 453.215 63.728 452.959 64.176C452.511 64.88 452.159 65.488 451.903 66C451.647 66.512 451.423 66.992 451.231 67.44L449.887 70.896C449.631 71.536 449.439 72.112 449.311 72.624C449.183 73.136 449.055 73.744 448.927 74.448C448.927 74.512 448.895 74.64 448.831 74.832C448.831 74.96 448.831 75.088 448.831 75.216C448.831 75.472 448.863 75.728 448.927 75.984C449.055 76.24 449.247 76.368 449.503 76.368C449.759 76.368 450.111 76.176 450.559 75.792C451.903 74.768 453.023 73.744 453.919 72.72C454.431 72.208 454.911 71.696 455.359 71.184C455.807 70.672 456.319 70.096 456.895 69.456C458.303 67.92 459.711 66.416 461.119 64.944C462.591 63.408 463.967 61.872 465.247 60.336C465.567 59.952 465.919 59.472 466.303 58.896C466.687 58.256 467.103 57.936 467.551 57.936H467.647C468.031 57.936 468.735 58.128 469.759 58.512C470.783 58.832 471.295 59.184 471.295 59.568V59.952C471.295 60.528 471.135 61.04 470.815 61.488C470.623 61.744 470.463 61.968 470.335 62.16C470.207 62.352 470.079 62.608 469.951 62.928C469.887 63.312 469.791 63.632 469.663 63.888C469.535 64.144 469.375 64.464 469.183 64.848C468.607 65.808 468.063 67.152 467.551 68.88C467.039 70.608 466.815 72.016 466.879 73.104C466.879 73.424 466.911 73.968 466.975 74.736C467.103 75.44 467.295 75.856 467.551 75.984C468.191 75.92 468.703 75.504 469.087 74.736C469.535 73.968 469.919 73.36 470.239 72.912C470.559 72.464 470.943 72.24 471.391 72.24C471.455 72.432 471.487 72.688 471.487 73.008C471.487 73.264 471.423 73.52 471.295 73.776C471.167 74.032 471.039 74.32 470.911 74.64C470.783 75.024 470.655 75.408 470.527 75.792C470.463 76.112 470.303 76.432 470.047 76.752C469.663 77.456 468.959 77.808 467.935 77.808C466.463 77.808 465.119 77.392 463.903 76.56C462.751 75.728 462.111 74.736 461.983 73.584C461.919 72.368 462.047 70.992 462.367 69.456C462.751 67.92 463.167 66.608 463.615 65.52C463.615 65.456 463.615 65.392 463.615 65.328C463.679 65.264 463.711 65.2 463.711 65.136C463.327 65.52 462.975 65.936 462.655 66.384C462.335 66.832 461.919 67.184 461.407 67.44L460.543 68.208C459.903 69.424 459.103 70.512 458.143 71.472C457.183 72.432 456.255 73.424 455.359 74.448C454.527 75.472 453.567 76.496 452.479 77.52C451.455 78.544 450.207 79.056 448.735 79.056ZM476.871 76.848C476.423 76.848 475.879 76.656 475.239 76.272C474.663 75.888 474.343 75.44 474.279 74.928C474.215 73.712 474.407 72.24 474.855 70.512C475.367 68.72 476.007 66.864 476.775 64.944C477.543 63.024 478.343 61.232 479.175 59.568C480.007 57.84 480.711 56.432 481.287 55.344C481.607 54.704 481.863 54.096 482.055 53.52C482.311 52.88 482.663 52.272 483.111 51.696C483.623 51.696 484.263 51.824 485.031 52.08C485.863 52.336 486.599 52.656 487.24 53.04C487.943 53.424 488.295 53.872 488.295 54.384C488.295 54.96 487.943 55.6 487.24 56.304C486.599 56.944 486.087 57.488 485.703 57.936C484.359 59.472 482.983 61.104 481.575 62.832C480.231 64.496 479.175 66.288 478.407 68.208C478.215 68.656 478.055 69.104 477.927 69.552C477.863 70 477.703 70.416 477.447 70.8C477.383 70.992 477.287 71.184 477.159 71.376C477.031 71.568 476.967 71.792 476.967 72.048L476.871 73.104C477.383 72.528 478.183 71.6 479.271 70.32C480.423 69.04 481.639 67.696 482.919 66.288C484.263 64.816 485.511 63.536 486.664 62.448C487.815 61.36 488.615 60.752 489.063 60.624C489.319 60.496 489.576 60.432 489.831 60.432C490.984 60.432 492.072 60.816 493.096 61.584C494.183 62.288 494.759 63.12 494.823 64.08C494.823 64.336 494.76 64.752 494.632 65.328C494.568 65.904 494.504 66.352 494.44 66.672C494.376 67.312 494.28 68.016 494.151 68.784C494.087 69.488 494.055 70.224 494.055 70.992C494.055 72.144 494.247 73.136 494.632 73.968C495.016 74.736 495.72 75.12 496.744 75.12C497 74.992 497.288 74.896 497.608 74.832C497.991 74.704 498.311 74.64 498.568 74.64C498.887 74.64 499.111 74.832 499.24 75.216C499.24 75.6 499.016 75.92 498.568 76.176C498.12 76.432 497.736 76.56 497.416 76.56H496.167C495.719 76.56 495.303 76.56 494.919 76.56C494.536 76.496 494.152 76.4 493.768 76.272C493.128 76.144 492.519 75.856 491.943 75.408C491.367 74.96 490.919 74.32 490.599 73.488C490.28 72.528 489.991 71.696 489.735 70.992C489.543 70.288 489.448 69.424 489.448 68.4V65.712C489.448 65.264 489.448 64.848 489.448 64.464C489.512 64.08 489.512 63.792 489.448 63.6C488.872 63.792 488.263 64.272 487.623 65.04C486.984 65.808 486.471 66.416 486.087 66.864C485.831 67.12 485.607 67.28 485.415 67.344L485.128 67.632C484.871 67.888 484.551 68.272 484.167 68.784C483.783 69.232 483.431 69.616 483.111 69.936C482.919 70.128 482.759 70.256 482.631 70.32L482.151 70.704L481.479 71.376C481.095 72.08 480.647 72.72 480.135 73.296C479.687 73.808 479.239 74.416 478.791 75.12C478.663 75.248 478.599 75.344 478.599 75.408L478.407 75.792C478.215 76.112 478.023 76.368 477.831 76.56C477.639 76.752 477.319 76.848 476.871 76.848Z" fill="black"/>
<path d="M515.779 132.049C515.779 130.441 513.689 129.637 509.508 129.637C507.727 129.637 505.723 130.206 503.496 131.344C501.294 132.457 499.241 134.016 497.336 136.02C495.431 138.023 493.724 140.287 492.215 142.811C488.924 148.253 487.279 153.844 487.279 159.584C487.279 165.299 488.417 169.752 490.693 172.943C492.994 176.135 496.47 177.73 501.121 177.73C501.517 177.73 501.814 177.718 502.012 177.693C503.001 175.17 503.892 172.548 504.684 169.826C505.5 167.105 505.908 165.447 505.908 164.854C505.908 164.235 505.562 163.728 504.869 163.332C504.176 162.936 503.41 162.664 502.568 162.516C500.342 162.12 499.229 161.39 499.229 160.326C499.229 158.941 501.01 157.877 504.572 157.135C508.135 156.393 512.378 156.021 517.301 156.021C522.249 156.021 525.514 156.257 527.098 156.727C528.681 157.172 529.473 157.914 529.473 158.953C529.473 159.671 529.04 160.883 528.174 162.59C527.308 164.297 525.885 168.428 523.906 174.984C521.927 181.54 520.492 185.499 519.602 186.859C518.142 189.111 515.915 190.793 512.922 191.906C509.953 193.044 506.465 193.613 502.457 193.613C495.109 193.613 491.436 192.834 491.436 191.275C491.436 190.236 492.363 189.185 494.219 188.121C496.346 186.884 497.942 185.511 499.006 184.002C499.451 183.334 499.884 182.567 500.305 181.701C496.915 182.567 492.982 183 488.504 183C484.026 183 480.105 182.518 476.74 181.553C473.4 180.563 470.741 179.153 468.762 177.322C464.927 173.785 463.01 168.985 463.01 162.924C463.01 159.361 463.715 155.873 465.125 152.459C466.535 149.045 468.44 145.952 470.84 143.182C473.24 140.411 476.035 137.85 479.227 135.5C482.418 133.15 485.783 131.171 489.32 129.562C496.816 126.198 504.226 124.516 511.549 124.516C518.872 124.516 524.327 125.617 527.914 127.818C531.526 130.02 533.332 133.1 533.332 137.059C533.332 139.359 532.305 141.512 530.252 143.516C527.926 145.792 524.277 146.93 519.305 146.93C517.622 146.93 516.188 146.695 515 146.225C512.749 145.334 511.623 144.06 511.623 142.402C511.623 142.031 512.316 140.436 513.701 137.615C515.087 134.795 515.779 132.939 515.779 132.049ZM563.511 175.059C568.162 175.059 572.046 171.496 575.163 164.371C576.598 161.105 577.316 158.458 577.316 156.43C577.316 154.401 576.969 153.003 576.276 152.236C575.609 151.469 574.273 151.086 572.269 151.086C570.29 151.086 568.137 152.014 565.812 153.869C563.511 155.7 561.655 158.013 560.245 160.809C558.835 163.604 558.13 166.128 558.13 168.379C558.13 170.605 558.625 172.275 559.614 173.389C560.604 174.502 561.903 175.059 563.511 175.059ZM582.808 143.627L599.804 144.406C600.447 144.406 600.929 144.604 601.251 145C601.573 145.371 601.734 145.792 601.734 146.262C601.734 148.068 600.979 150.95 599.47 154.908C597.985 158.842 596.489 162.751 594.98 166.635C593.495 170.494 592.753 173.055 592.753 174.316C592.753 175.553 592.939 176.345 593.31 176.691C593.706 177.038 594.448 177.211 595.536 177.211C596.625 177.211 598.604 176.691 601.474 175.652C604.368 174.589 606.323 173.785 607.337 173.24C608.376 172.696 609.168 172.424 609.712 172.424C610.677 172.424 611.159 172.857 611.159 173.723C611.159 175.553 607.448 177.953 600.026 180.922C597.528 181.936 594.51 182.777 590.972 183.445C587.459 184.138 583.884 184.484 580.247 184.484C574.186 184.484 570.537 182.555 569.3 178.695C565.441 182.555 560.245 184.484 553.714 184.484C549.236 184.484 545.451 183.408 542.359 181.256C538.994 178.906 537.312 175.207 537.312 170.16C537.312 164.841 538.883 159.943 542.025 155.465C545.463 150.492 550.065 147.066 555.829 145.186C559.021 144.146 562.447 143.627 566.109 143.627C571.724 143.627 576.091 145.012 579.208 147.783C579.233 147.635 579.245 147.4 579.245 147.078L579.208 145.482C579.208 144.245 580.408 143.627 582.808 143.627ZM624.119 128.338L642.303 127.93C642.946 127.93 643.429 128.128 643.75 128.523C644.072 128.895 644.233 129.315 644.233 129.785C644.233 132.383 641.858 139.879 637.108 152.273C632.382 164.668 630.02 171.966 630.02 174.168C630.02 175.083 630.205 175.776 630.576 176.246C630.947 176.691 631.603 176.914 632.543 176.914C635.487 176.914 640.052 175.553 646.237 172.832C646.855 172.56 647.449 172.424 648.018 172.424C649.032 172.424 649.539 172.82 649.539 173.611C649.539 174.279 649.032 174.972 648.018 175.689C647.003 176.407 645.606 177.199 643.824 178.064C642.043 178.93 639.878 179.87 637.33 180.885C634.782 181.899 631.888 182.753 628.647 183.445C625.431 184.138 622.054 184.484 618.516 184.484C614.978 184.484 612.145 184.002 610.018 183.037C607.89 182.097 606.826 180.353 606.826 177.805C606.826 176.023 609.115 169.035 613.692 156.838C615.399 152.286 616.97 147.561 618.405 142.662C619.839 137.739 620.557 134.053 620.557 131.604L620.52 130.193C620.52 128.956 621.72 128.338 624.119 128.338ZM662.499 128.338L680.683 127.93C681.326 127.93 681.809 128.128 682.13 128.523C682.452 128.895 682.613 129.315 682.613 129.785C682.613 132.383 680.238 139.879 675.488 152.273C670.762 164.668 668.4 171.966 668.4 174.168C668.4 175.083 668.585 175.776 668.956 176.246C669.327 176.691 669.983 176.914 670.923 176.914C673.867 176.914 678.432 175.553 684.617 172.832C685.235 172.56 685.829 172.424 686.398 172.424C687.412 172.424 687.919 172.82 687.919 173.611C687.919 174.279 687.412 174.972 686.398 175.689C685.383 176.407 683.986 177.199 682.204 178.064C680.423 178.93 678.258 179.87 675.71 180.885C673.162 181.899 670.268 182.753 667.027 183.445C663.811 184.138 660.434 184.484 656.896 184.484C653.358 184.484 650.525 184.002 648.398 183.037C646.27 182.097 645.206 180.353 645.206 177.805C645.206 176.023 647.495 169.035 652.072 156.838C653.779 152.286 655.35 147.561 656.785 142.662C658.219 137.739 658.937 134.053 658.937 131.604L658.9 130.193C658.9 128.956 660.1 128.338 662.499 128.338ZM744.075 172.424C744.941 172.424 745.374 172.832 745.374 173.648C745.374 174.44 744.78 175.182 743.592 175.875C742.43 176.543 740.982 177.273 739.25 178.064C737.519 178.831 735.131 179.747 732.088 180.811C725.087 183.26 717.183 184.484 708.375 184.484C691.652 184.484 683.29 179.339 683.29 169.047C683.29 164.025 684.873 159.572 688.04 155.688C691.231 151.779 695.499 148.798 700.842 146.744C706.186 144.666 712.012 143.627 718.321 143.627C724.629 143.627 729.243 144.604 732.163 146.559C735.107 148.513 736.579 151.197 736.579 154.611C736.579 158.124 735.168 160.994 732.348 163.221C729.553 165.447 725.829 167.105 721.178 168.193C716.502 169.282 711.146 170.049 705.11 170.494C705.506 174.329 708.252 176.716 713.348 177.656C714.659 177.879 716.045 177.99 717.504 177.99C723.293 177.99 731.643 176.246 742.553 172.758C743.221 172.535 743.728 172.424 744.075 172.424ZM705.147 166.412C709.452 165.225 712.853 163.406 715.352 160.957C717.851 158.508 719.1 155.551 719.1 152.088C719.1 151.173 718.803 150.443 718.209 149.898C717.616 149.354 716.713 149.082 715.5 149.082C714.313 149.082 713.064 149.602 711.752 150.641C710.466 151.68 709.377 153.04 708.487 154.723C706.607 158.211 705.493 162.107 705.147 166.412ZM752.841 144.814L770.431 144.406C771.074 144.406 771.557 144.604 771.879 145C772.2 145.371 772.361 145.717 772.361 146.039C772.361 146.361 772.274 146.893 772.101 147.635C771.928 148.377 771.705 149.28 771.433 150.344C771.161 151.383 770.988 152.051 770.914 152.348C772.843 150.047 775.255 148.018 778.15 146.262C781.045 144.505 783.593 143.627 785.795 143.627C790.47 143.627 792.808 144.641 792.808 146.67C792.808 148.674 792.177 151.086 790.916 153.906C789.654 156.702 788.466 158.545 787.353 159.436C786.809 159.831 786.141 160.029 785.349 160.029C784.582 160.029 783.865 159.782 783.197 159.287C780.203 157.061 776.938 155.947 773.4 155.947C772.039 155.947 770.852 156.046 769.837 156.244C768.873 159.559 767.339 164.433 765.236 170.865C763.133 177.273 761.97 180.848 761.748 181.59C761.377 182.753 760.684 183.334 759.67 183.334C756.082 183.334 752.235 183.52 748.129 183.891C744.022 184.286 741.659 184.484 741.041 184.484C740.447 184.484 739.977 184.311 739.63 183.965C739.309 183.643 739.148 183.26 739.148 182.814C739.148 182.344 739.668 180.687 740.707 177.842C741.77 174.972 742.933 171.892 744.195 168.602C745.481 165.311 746.644 161.699 747.683 157.766C748.747 153.832 749.279 150.604 749.279 148.08L749.242 146.67C749.242 145.433 750.442 144.814 752.841 144.814ZM865.143 172.424C866.059 172.424 866.516 172.844 866.516 173.686C866.516 175.343 863.35 177.495 857.016 180.143C853.058 181.8 848.704 183.136 843.954 184.15C843.36 185.808 842.828 187.268 842.358 188.529C841.888 189.816 841.022 191.251 839.76 192.834C838.523 194.417 837.051 195.741 835.344 196.805C833.662 197.868 831.844 198.759 829.889 199.477C827.96 200.219 825.783 200.788 823.358 201.184C818.979 201.926 813.846 202.297 807.958 202.297C802.094 202.297 797.579 201.641 794.413 200.33C791.246 199.019 789.663 197.126 789.663 194.652C789.663 193.217 790.281 191.919 791.518 190.756C792.755 189.593 794.363 188.616 796.342 187.824C798.346 187.033 800.895 186.315 803.987 185.672C809.257 184.608 815.874 183.73 823.841 183.037C824.509 180.835 824.991 178.992 825.288 177.508C818.089 180.18 811.483 181.516 805.471 181.516C797.431 181.516 793.411 178.856 793.411 173.537C793.411 169.801 794.524 165.188 796.751 159.695C799.002 154.178 800.128 150.307 800.128 148.08L800.091 146.67C800.091 145.433 801.29 144.814 803.69 144.814L812.337 144.963L820.167 144.406C820.81 144.406 821.292 144.604 821.614 145C821.936 145.371 822.096 146.039 822.096 147.004C822.096 147.944 821.725 149.602 820.983 151.977C820.266 154.327 819.474 156.529 818.608 158.582C816.258 164.099 815.083 167.81 815.083 169.715C815.083 170.803 815.479 171.632 816.27 172.201C817.062 172.77 818.101 173.055 819.387 173.055C822.109 173.055 824.645 172.3 826.995 170.791C829.642 163.641 832.079 155.688 834.305 146.93C834.528 146.014 835.184 145.557 836.272 145.557C839.859 145.557 843.706 145.371 847.813 145C851.92 144.604 854.27 144.406 854.864 144.406C855.482 144.406 855.965 144.555 856.311 144.852C856.658 145.148 856.831 145.433 856.831 145.705C856.831 146.769 853.132 157.914 845.735 179.141C849.397 178.275 852.798 177.248 855.94 176.061C859.107 174.848 861.259 173.945 862.397 173.352C863.56 172.733 864.475 172.424 865.143 172.424ZM820.649 192.389C821.367 190.583 821.985 188.876 822.505 187.268C811.372 188.678 805.805 191.251 805.805 194.986C805.805 195.951 806.3 196.854 807.29 197.695C808.304 198.561 809.318 198.994 810.333 198.994C812.584 198.994 814.687 198.413 816.641 197.25C818.596 196.112 819.932 194.492 820.649 192.389Z" fill="black"/>
<path d="M939.812 47.9375C938.562 47.9375 937.479 48.2083 936.562 48.75C935.688 49.25 934.875 49.8958 934.125 50.6875C933.375 51.4375 932.688 52.2708 932.062 53.1875C931.438 54.1042 930.771 54.9583 930.062 55.75C929.396 56.5 928.667 57.1458 927.875 57.6875C927.083 58.1875 926.167 58.4375 925.125 58.4375C925.125 57.6458 925.104 56.75 925.062 55.75C925.021 54.75 924.917 53.7292 924.75 52.6875C924.583 51.6458 924.354 50.625 924.062 49.625C923.771 48.5833 923.354 47.6875 922.812 46.9375C922.271 46.1458 921.583 45.5208 920.75 45.0625C919.958 44.5625 919 44.3125 917.875 44.3125C916.458 44.3125 915.229 44.6458 914.188 45.3125C913.188 45.9792 912.333 46.8333 911.625 47.875C910.958 48.9167 910.458 50.0833 910.125 51.375C909.792 52.625 909.625 53.875 909.625 55.125C909.083 55.125 908.667 55.1875 908.375 55.3125C908.125 55.3958 907.854 55.5 907.562 55.625C907.312 55.75 907.042 55.875 906.75 56C906.5 56.125 906.125 56.1875 905.625 56.1875C905.625 55.1458 905.542 54.125 905.375 53.125C905.208 52.0833 905.042 51.0625 904.875 50.0625C904.708 49.0625 904.542 48.0625 904.375 47.0625C904.25 46.0625 904.188 45.0625 904.188 44.0625V43.625C904.188 43.4167 904.188 43.2083 904.188 43C904.229 42.75 904.25 42.5417 904.25 42.375V41.875C904.375 41.5417 904.542 41.3542 904.75 41.3125C904.958 41.2708 905.188 41.25 905.438 41.25C905.979 41.25 906.396 41.4583 906.688 41.875C906.979 42.2917 907.208 42.7917 907.375 43.375C907.542 43.9167 907.646 44.4792 907.688 45.0625C907.771 45.6042 907.833 45.9792 907.875 46.1875H908.5C909.833 44.3542 911.375 42.9792 913.125 42.0625C914.917 41.1458 916.917 40.6875 919.125 40.6875C920.625 40.6875 921.875 41.0208 922.875 41.6875C923.917 42.3542 924.792 43.1875 925.5 44.1875C926.208 45.1875 926.792 46.3125 927.25 47.5625C927.708 48.7708 928.146 49.9375 928.562 51.0625H929.188C930.104 50.2292 931.042 49.3958 932 48.5625C933 47.7292 934 47.0208 935 46.4375C936.042 45.8125 937.125 45.3125 938.25 44.9375C939.417 44.5208 940.688 44.3125 942.062 44.3125C943.062 44.3125 943.979 44.6458 944.812 45.3125C945.688 45.9375 946.458 46.7708 947.125 47.8125C947.833 48.8542 948.438 50.0208 948.938 51.3125C949.438 52.5625 949.854 53.8542 950.188 55.1875C950.521 56.5208 950.771 57.7917 950.938 59C951.104 60.2083 951.188 61.2708 951.188 62.1875C949.646 62.1875 948.521 61.8333 947.812 61.125C947.104 60.4167 946.583 59.5417 946.25 58.5C945.917 57.4167 945.688 56.2708 945.562 55.0625C945.438 53.8125 945.208 52.6667 944.875 51.625C944.542 50.5833 944 49.7083 943.25 49C942.5 48.2917 941.354 47.9375 939.812 47.9375ZM953.195 51C953.195 49.5833 953.591 48.2083 954.382 46.875C955.174 45.5417 956.174 44.375 957.382 43.375C958.632 42.375 959.987 41.5833 961.445 41C962.945 40.4167 964.362 40.125 965.695 40.125C966.778 40.125 967.841 40.2708 968.882 40.5625C969.966 40.8125 970.924 41.2292 971.757 41.8125C972.591 42.3958 973.257 43.125 973.757 44C974.299 44.8333 974.57 45.8333 974.57 47C974.57 47.5417 974.528 47.9792 974.445 48.3125C974.403 48.6042 974.278 48.875 974.07 49.125C973.862 49.3333 973.591 49.5417 973.257 49.75C972.966 49.9167 972.591 50.1458 972.132 50.4375C971.882 50.4792 971.507 50.5833 971.007 50.75C970.507 50.875 969.924 51.0208 969.257 51.1875C968.632 51.3542 967.966 51.5208 967.257 51.6875C966.549 51.8542 965.862 52.0208 965.195 52.1875C964.57 52.3542 964.007 52.5 963.507 52.625C963.007 52.75 962.632 52.8333 962.382 52.875C962.257 52.9167 961.987 52.9583 961.57 53C961.153 53.0417 960.695 53.1042 960.195 53.1875C959.737 53.2292 959.299 53.2917 958.882 53.375C958.466 53.4167 958.216 53.4583 958.132 53.5C958.007 53.5417 957.862 53.6458 957.695 53.8125C957.57 53.9375 957.507 54.0208 957.507 54.0625C957.507 54.8958 957.737 55.6042 958.195 56.1875C958.653 56.7292 959.237 57.1875 959.945 57.5625C960.653 57.9375 961.445 58.2292 962.32 58.4375C963.237 58.6042 964.132 58.75 965.007 58.875C965.882 58.9583 966.695 59 967.445 59C968.195 59 968.799 59 969.257 59C971.341 59 973.382 58.8958 975.382 58.6875C977.382 58.4375 979.424 58.3125 981.507 58.3125V58.8125C981.507 59.0625 981.466 59.3333 981.382 59.625C981.341 59.875 981.257 60.125 981.132 60.375C981.007 60.5833 980.841 60.7083 980.632 60.75C979.049 61.0833 977.632 61.3542 976.382 61.5625C975.174 61.7292 974.028 61.8542 972.945 61.9375C971.862 61.9792 970.737 62 969.57 62C968.403 62.0417 967.112 62.0625 965.695 62.0625H964.632C964.174 62.0625 963.674 62.0417 963.132 62C962.591 62 962.07 62 961.57 62H960.507C959.216 61.6667 958.091 61.1458 957.132 60.4375C956.216 59.6875 955.466 58.8125 954.882 57.8125C954.299 56.8125 953.862 55.7292 953.57 54.5625C953.32 53.3958 953.195 52.2083 953.195 51ZM967.195 43.625C966.653 43.625 966.028 43.6875 965.32 43.8125C964.653 43.8958 963.945 44.0625 963.195 44.3125C962.487 44.5208 961.778 44.8125 961.07 45.1875C960.362 45.5208 959.737 45.9375 959.195 46.4375C958.653 46.8958 958.195 47.4167 957.82 48C957.487 48.5833 957.32 49.2292 957.32 49.9375H959.882C960.799 49.9375 961.737 49.8958 962.695 49.8125C963.653 49.7292 964.591 49.6042 965.507 49.4375C966.424 49.2292 967.216 48.9375 967.882 48.5625C968.591 48.1458 969.153 47.625 969.57 47C970.028 46.375 970.257 45.6042 970.257 44.6875V44.375L969.632 43.75C969.549 43.75 969.382 43.75 969.132 43.75C968.924 43.7083 968.695 43.6875 968.445 43.6875C968.195 43.6458 967.945 43.625 967.695 43.625C967.487 43.625 967.32 43.625 967.195 43.625ZM1019.58 47.9375C1018.33 47.9375 1017.24 48.2083 1016.33 48.75C1015.45 49.25 1014.64 49.8958 1013.89 50.6875C1013.14 51.4375 1012.45 52.2708 1011.83 53.1875C1011.2 54.1042 1010.54 54.9583 1009.83 55.75C1009.16 56.5 1008.43 57.1458 1007.64 57.6875C1006.85 58.1875 1005.93 58.4375 1004.89 58.4375C1004.89 57.6458 1004.87 56.75 1004.83 55.75C1004.79 54.75 1004.68 53.7292 1004.51 52.6875C1004.35 51.6458 1004.12 50.625 1003.83 49.625C1003.54 48.5833 1003.12 47.6875 1002.58 46.9375C1002.04 46.1458 1001.35 45.5208 1000.51 45.0625C999.723 44.5625 998.765 44.3125 997.64 44.3125C996.223 44.3125 994.994 44.6458 993.952 45.3125C992.952 45.9792 992.098 46.8333 991.39 47.875C990.723 48.9167 990.223 50.0833 989.89 51.375C989.557 52.625 989.39 53.875 989.39 55.125C988.848 55.125 988.432 55.1875 988.14 55.3125C987.89 55.3958 987.619 55.5 987.327 55.625C987.077 55.75 986.807 55.875 986.515 56C986.265 56.125 985.89 56.1875 985.39 56.1875C985.39 55.1458 985.307 54.125 985.14 53.125C984.973 52.0833 984.807 51.0625 984.64 50.0625C984.473 49.0625 984.307 48.0625 984.14 47.0625C984.015 46.0625 983.952 45.0625 983.952 44.0625V43.625C983.952 43.4167 983.952 43.2083 983.952 43C983.994 42.75 984.015 42.5417 984.015 42.375V41.875C984.14 41.5417 984.307 41.3542 984.515 41.3125C984.723 41.2708 984.952 41.25 985.202 41.25C985.744 41.25 986.161 41.4583 986.452 41.875C986.744 42.2917 986.973 42.7917 987.14 43.375C987.307 43.9167 987.411 44.4792 987.452 45.0625C987.536 45.6042 987.598 45.9792 987.64 46.1875H988.265C989.598 44.3542 991.14 42.9792 992.89 42.0625C994.682 41.1458 996.682 40.6875 998.89 40.6875C1000.39 40.6875 1001.64 41.0208 1002.64 41.6875C1003.68 42.3542 1004.56 43.1875 1005.26 44.1875C1005.97 45.1875 1006.56 46.3125 1007.01 47.5625C1007.47 48.7708 1007.91 49.9375 1008.33 51.0625H1008.95C1009.87 50.2292 1010.81 49.3958 1011.76 48.5625C1012.76 47.7292 1013.76 47.0208 1014.76 46.4375C1015.81 45.8125 1016.89 45.3125 1018.01 44.9375C1019.18 44.5208 1020.45 44.3125 1021.83 44.3125C1022.83 44.3125 1023.74 44.6458 1024.58 45.3125C1025.45 45.9375 1026.22 46.7708 1026.89 47.8125C1027.6 48.8542 1028.2 50.0208 1028.7 51.3125C1029.2 52.5625 1029.62 53.8542 1029.95 55.1875C1030.29 56.5208 1030.54 57.7917 1030.7 59C1030.87 60.2083 1030.95 61.2708 1030.95 62.1875C1029.41 62.1875 1028.29 61.8333 1027.58 61.125C1026.87 60.4167 1026.35 59.5417 1026.01 58.5C1025.68 57.4167 1025.45 56.2708 1025.33 55.0625C1025.2 53.8125 1024.97 52.6667 1024.64 51.625C1024.31 50.5833 1023.76 49.7083 1023.01 49C1022.26 48.2917 1021.12 47.9375 1019.58 47.9375ZM1032.96 54.625C1032.96 53.2083 1033.21 51.75 1033.71 50.25C1034.21 48.75 1034.92 47.375 1035.84 46.125C1036.79 44.875 1037.92 43.8542 1039.21 43.0625C1040.5 42.2708 1041.98 41.875 1043.65 41.875C1045.98 41.875 1047.94 42.1042 1049.52 42.5625C1051.11 43.0208 1052.4 43.7292 1053.4 44.6875C1054.4 45.6042 1055.11 46.8125 1055.52 48.3125C1055.98 49.7708 1056.21 51.5 1056.21 53.5C1056.21 53.625 1056.19 53.875 1056.15 54.25C1056.15 54.5833 1056.15 54.9375 1056.15 55.3125C1056.15 55.6875 1056.13 56.0625 1056.09 56.4375C1056.09 56.7708 1056.09 57.0208 1056.09 57.1875C1055.79 58.2292 1055.23 59.0833 1054.4 59.75C1053.61 60.375 1052.67 60.8542 1051.59 61.1875C1050.54 61.5208 1049.44 61.75 1048.27 61.875C1047.15 62 1046.13 62.0625 1045.21 62.0625C1043.92 62.0625 1042.56 61.9792 1041.15 61.8125C1039.73 61.6458 1038.4 61.3125 1037.15 60.8125C1035.94 60.2708 1034.94 59.5208 1034.15 58.5625C1033.36 57.5625 1032.96 56.25 1032.96 54.625ZM1036.09 53.8125C1036.09 54.8958 1036.4 55.7917 1037.02 56.5C1037.69 57.1667 1038.48 57.6875 1039.4 58.0625C1040.31 58.4375 1041.29 58.6875 1042.34 58.8125C1043.42 58.9375 1044.34 59 1045.09 59C1045.84 59 1046.48 59 1047.02 59C1047.61 59 1048.17 58.9375 1048.71 58.8125C1049.25 58.6875 1049.81 58.5 1050.4 58.25C1050.98 58 1051.67 57.6458 1052.46 57.1875C1052.88 56.5208 1053.11 55.875 1053.15 55.25C1053.19 54.5833 1053.21 53.8958 1053.21 53.1875C1053.21 51.7708 1052.94 50.5208 1052.4 49.4375C1051.86 48.3542 1051.13 47.4792 1050.21 46.8125C1049.29 46.1458 1048.19 45.7083 1046.9 45.5C1045.65 45.25 1044.25 45.2708 1042.71 45.5625C1042.09 45.6875 1041.38 46.0625 1040.59 46.6875C1039.79 47.3125 1039.06 48.0417 1038.4 48.875C1037.73 49.7083 1037.17 50.5833 1036.71 51.5C1036.29 52.375 1036.09 53.1458 1036.09 53.8125ZM1060.09 49.8125C1060.05 49.8125 1059.95 49.75 1059.78 49.625C1059.61 49.4583 1059.53 49.3125 1059.53 49.1875C1059.49 49.1875 1059.47 49.1458 1059.47 49.0625V48.75C1059.47 48.7083 1059.49 48.6667 1059.53 48.625C1059.99 48.1667 1060.36 47.8333 1060.65 47.625C1060.99 47.4167 1061.43 47.3125 1061.97 47.3125C1062.13 47.3125 1062.28 47.3542 1062.4 47.4375C1062.57 47.5208 1062.7 47.6042 1062.78 47.6875C1062.86 47.7708 1062.95 47.8542 1063.03 47.9375C1063.15 48.0208 1063.28 48.0625 1063.4 48.0625C1063.53 48.0625 1063.78 47.875 1064.15 47.5C1064.53 47.0833 1065.03 46.5833 1065.65 46C1066.28 45.4167 1067.05 44.7917 1067.97 44.125C1068.88 43.4167 1069.9 42.7708 1071.03 42.1875C1072.2 41.6042 1073.45 41.125 1074.78 40.75C1076.15 40.3333 1077.65 40.125 1079.28 40.125H1079.65C1079.82 40.1667 1080.15 40.25 1080.65 40.375C1081.2 40.4583 1081.76 40.5833 1082.34 40.75C1082.93 40.875 1083.47 41 1083.97 41.125C1084.51 41.2083 1084.88 41.2708 1085.09 41.3125C1085.13 41.3542 1085.22 41.4375 1085.34 41.5625C1085.47 41.6458 1085.59 41.75 1085.72 41.875C1085.84 41.9583 1085.95 42.0625 1086.03 42.1875C1086.15 42.3125 1086.24 42.4167 1086.28 42.5C1086.28 42.5417 1086.3 42.6042 1086.34 42.6875C1086.34 42.6875 1086.34 42.7083 1086.34 42.75C1086.38 42.7917 1086.4 42.8125 1086.4 42.8125L1086.34 42.9375C1086.34 42.9375 1086.34 42.9583 1086.34 43C1086.3 43.0417 1086.28 43.0833 1086.28 43.125C1086.24 43.25 1086.13 43.3958 1085.97 43.5625C1085.8 43.6875 1085.72 43.75 1085.72 43.75H1074.72C1073.8 43.75 1072.8 44.0208 1071.72 44.5625C1070.68 45.0625 1069.68 45.7292 1068.72 46.5625C1067.8 47.3542 1067.03 48.2708 1066.4 49.3125C1065.82 50.3125 1065.53 51.2917 1065.53 52.25V61.125C1065.07 61.125 1064.74 61.1875 1064.53 61.3125C1064.32 61.3958 1064.13 61.5 1063.97 61.625C1063.84 61.75 1063.7 61.8542 1063.53 61.9375C1063.36 62.0208 1063.13 62.0625 1062.84 62.0625H1062.72C1062.68 62.0625 1062.63 62.0417 1062.59 62C1062.43 61.9583 1062.28 61.875 1062.15 61.75C1062.03 61.5833 1061.97 61.4792 1061.97 61.4375L1060.09 49.8125ZM1082.29 83.125C1082.29 82.625 1082.31 82.0208 1082.35 81.3125C1082.39 80.6042 1082.54 79.9167 1082.79 79.25C1083 78.5833 1083.31 78 1083.73 77.5C1084.14 77 1084.68 76.7083 1085.35 76.625C1085.35 76.6667 1085.37 76.75 1085.41 76.875C1085.41 77.0417 1085.41 77.1667 1085.41 77.25C1085.41 77.8333 1085.29 78.3542 1085.04 78.8125C1084.79 79.3125 1084.66 79.9167 1084.66 80.625C1084.66 81.7917 1084.89 82.8542 1085.35 83.8125C1085.81 84.7708 1086.41 85.625 1087.16 86.375C1087.91 87.125 1088.77 87.7708 1089.73 88.3125C1090.73 88.8542 1091.77 89.2917 1092.85 89.625C1093.98 90 1095.1 90.2708 1096.23 90.4375C1097.35 90.6042 1098.39 90.6875 1099.35 90.6875C1100.73 90.6875 1101.89 90.4583 1102.85 90C1103.81 89.5417 1104.62 88.9167 1105.29 88.125C1106 87.375 1106.56 86.4792 1106.98 85.4375C1107.39 84.4375 1107.7 83.375 1107.91 82.25C1108.16 81.1667 1108.33 80.0625 1108.41 78.9375C1108.54 77.8125 1108.6 76.75 1108.6 75.75C1108.6 75.5833 1108.58 75.0625 1108.54 74.1875C1108.5 73.3542 1108.43 72.3542 1108.35 71.1875C1108.27 70.0625 1108.16 68.8542 1108.04 67.5625C1107.91 66.2708 1107.75 65.0625 1107.54 63.9375C1107.33 62.8125 1107.08 61.8958 1106.79 61.1875C1106.5 60.4792 1106.16 60.125 1105.79 60.125C1105 60.125 1104.2 60.2292 1103.41 60.4375C1102.66 60.6458 1101.91 60.875 1101.16 61.125C1100.41 61.375 1099.62 61.6042 1098.79 61.8125C1098 62.0208 1097.16 62.125 1096.29 62.125C1096.12 62.125 1095.83 62.125 1095.41 62.125C1095.04 62.125 1094.62 62.1042 1094.16 62.0625C1093.7 62.0625 1093.27 62.0417 1092.85 62C1092.48 62 1092.2 62 1092.04 62C1091.16 61.6667 1090.43 61.1667 1089.85 60.5C1089.31 59.8333 1088.87 59.0833 1088.54 58.25C1088.2 57.375 1087.98 56.4792 1087.85 55.5625C1087.73 54.6042 1087.66 53.7292 1087.66 52.9375C1087.66 51.7708 1087.68 50.7292 1087.73 49.8125C1087.81 48.8542 1088.04 47.8542 1088.41 46.8125C1088.45 46.7292 1088.6 46.6875 1088.85 46.6875C1089.1 46.6458 1089.25 46.625 1089.29 46.625C1090.04 46.625 1090.54 46.9375 1090.79 47.5625C1091.04 48.1875 1091.18 48.9583 1091.23 49.875C1091.27 50.7917 1091.29 51.7917 1091.29 52.875C1091.33 53.9167 1091.5 54.8958 1091.79 55.8125C1092.08 56.7292 1092.56 57.5 1093.23 58.125C1093.93 58.7083 1095 59 1096.41 59C1098.33 59 1099.83 58.7708 1100.91 58.3125C1102 57.8542 1102.81 57.1667 1103.35 56.25C1103.89 55.2917 1104.2 54.1458 1104.29 52.8125C1104.37 51.4375 1104.35 49.8333 1104.23 48C1104.18 47.4583 1104.29 47.1042 1104.54 46.9375C1104.79 46.7708 1105.08 46.6875 1105.41 46.6875C1105.83 46.6875 1106.27 47.1458 1106.73 48.0625C1107.23 48.9792 1107.68 50.1458 1108.1 51.5625C1108.52 52.9792 1108.93 54.5208 1109.35 56.1875C1109.77 57.8125 1110.12 59.375 1110.41 60.875C1110.7 62.375 1110.93 63.6667 1111.1 64.75C1111.31 65.875 1111.43 66.5833 1111.48 66.875C1111.52 67.0417 1111.58 67.3542 1111.66 67.8125C1111.75 68.3125 1111.81 68.8958 1111.85 69.5625C1111.93 70.2708 1112.02 70.9792 1112.1 71.6875C1112.18 72.4375 1112.27 73.1458 1112.35 73.8125C1112.43 74.5208 1112.52 75.125 1112.6 75.625C1112.68 76.125 1112.73 76.4583 1112.73 76.625V76.9375C1112.73 79.1042 1112.45 81.1875 1111.91 83.1875C1111.41 85.1875 1110.6 86.9583 1109.48 88.5C1108.39 90.0833 1107 91.3333 1105.29 92.25C1103.62 93.2083 1101.6 93.6875 1099.23 93.6875C1098.23 93.6875 1097.1 93.6042 1095.85 93.4375C1094.64 93.2708 1093.41 93 1092.16 92.625C1090.91 92.2917 1089.68 91.8542 1088.48 91.3125C1087.31 90.7708 1086.27 90.0833 1085.35 89.25C1084.43 88.4583 1083.7 87.5625 1083.16 86.5625C1082.58 85.5625 1082.29 84.4167 1082.29 83.125Z" fill="black"/>
<path d="M1157.97 180.368C1159.8 173.755 1163.07 166.267 1167.76 157.904C1170.87 152.357 1174.37 147.429 1178.26 143.12C1180.22 140.944 1182.25 139.109 1184.34 137.616L1195.15 145.232C1193.7 156.88 1188.41 165.093 1179.28 169.872C1176.34 171.408 1173.05 172.624 1169.42 173.52C1168.4 176.037 1167.61 178.192 1167.06 179.984C1172.35 179.259 1176.46 178.448 1179.41 177.552C1185.17 175.845 1189.97 173.712 1193.81 171.152L1195.15 177.616C1188.88 181.968 1181.75 184.997 1173.78 186.704C1171.13 187.259 1168.51 187.6 1165.9 187.728L1157.97 180.368ZM1173.14 165.52C1177.02 163.685 1180.11 161.04 1182.42 157.584C1184.72 154.128 1186.26 150.075 1187.02 145.424C1183.65 148.453 1180.05 153.275 1176.21 159.888C1175.1 161.765 1174.07 163.643 1173.14 165.52ZM1216.92 178.768C1212.83 183.504 1207.43 186.491 1200.73 187.728L1191.64 180.112C1191.64 176.016 1192.45 171.963 1194.08 167.952C1196.12 162.917 1199.49 158.843 1204.19 155.728C1207.43 153.552 1210.95 152.208 1214.75 151.696L1224.92 160.4C1224.2 165.008 1222.96 169.019 1221.21 172.432C1224.28 172.261 1227.76 171.835 1231.64 171.152L1233.05 177.616C1227.51 179.92 1223.15 181.477 1220 182.288L1216.92 178.768ZM1200.22 179.024C1205.08 177.915 1209.14 174.907 1212.38 170C1213.75 167.909 1214.73 165.904 1215.32 163.984C1215.92 162.064 1216.24 160.528 1216.28 159.376C1212.83 159.845 1209.54 161.68 1206.43 164.88C1202.55 168.848 1200.48 173.563 1200.22 179.024ZM1249.43 179.408C1245.29 183.077 1241.2 185.851 1237.14 187.728L1228.63 180.368C1229.4 175.931 1230.45 172.048 1231.77 168.72C1233.86 163.301 1236.53 157.648 1239.77 151.76L1246.81 156.56C1244.33 160.955 1242.58 164.496 1241.56 167.184C1240.02 171.237 1238.91 174.821 1238.23 177.936C1242.24 176.101 1247.38 170.64 1253.66 161.552C1255.53 158.864 1257.3 156.069 1258.97 153.168L1266.33 157.968C1262.57 164.197 1258.65 169.616 1254.55 174.224C1257.07 174.096 1259.99 173.648 1263.32 172.88C1266.65 172.112 1268.93 171.536 1270.17 171.152L1271.58 177.616C1267.91 179.579 1263.17 181.392 1257.37 183.056C1255.79 183.483 1254.45 183.803 1253.34 184.016L1249.43 179.408ZM1283.01 173.648C1281.01 173.648 1279.43 173.499 1278.28 173.2C1277.59 174.864 1277.17 176.933 1277 179.408C1284.33 178.981 1291.42 177.339 1298.24 174.48C1300.55 173.541 1302.77 172.432 1304.9 171.152L1306.24 177.616C1302.28 180.133 1297.58 182.352 1292.16 184.272C1286.4 186.32 1280.96 187.472 1275.84 187.728L1267.91 180.368C1267.91 174.48 1269.51 169.104 1272.71 164.24C1275.01 160.869 1277.61 158.203 1280.52 156.24C1283.46 154.277 1286.28 152.869 1288.96 152.016L1299.78 160.976C1298.71 165.413 1296.69 168.635 1293.7 170.64C1290.71 172.645 1287.15 173.648 1283.01 173.648ZM1280.96 167.44C1283.44 167.44 1285.59 166.757 1287.43 165.392C1289.56 163.771 1290.63 161.509 1290.63 158.608C1286.32 160.955 1283.1 163.899 1280.96 167.44Z" fill="black"/>
</svg>
